G04 ================== begin FILE IDENTIFICATION RECORD ==================*
G04 Layout Name:  D:/facultate/an_3/sem_1/proiect apd_proiect cef/PCB/allegro/PCB_3.brd*
G04 Film Name:    FAB*
G04 File Format:  Gerber RS274X*
G04 File Origin:  Cadence Allegro 17.2-S025*
G04 Origin Date:  Tue Jan 21 13:32:51 2025*
G04 *
G04 Layer:  MANUFACTURING/NCLEGEND-1-2*
G04 Layer:  MANUFACTURING/NCDRILL_LEGEND*
G04 Layer:  MANUFACTURING/NCDRILL_FIGURE*
G04 Layer:  DRAWING FORMAT/DRAWING_ORIGIN*
G04 Layer:  BOARD GEOMETRY/OUTLINE*
G04 Layer:  BOARD GEOMETRY/DIMENSION*
G04 *
G04 Offset:    (0.00 0.00)*
G04 Mirror:    No*
G04 Mode:      Positive*
G04 Rotation:  0*
G04 FullContactRelief:  No*
G04 UndefLineWidth:     10.00*
G04 ================== end FILE IDENTIFICATION RECORD ====================*
%FSLAX25Y25*MOIN*%
%IR0*IPPOS*OFA0.00000B0.00000*MIA0B0*SFA1.00000B1.00000*%
%AMMACRO11*
1,1,.01,.025,0.0*
20,1,.01,.025,0.0,-.025,0.0,0.0*
1,1,.01,-.025,0.0*
1,1,.01,0.0,.025*
20,1,.01,0.0,.025,0.0,-.025,0.0*
1,1,.01,0.0,-.025*
%
%ADD11MACRO11*%
%AMMACRO10*
1,1,.01,.025,0.0*
20,1,.01,.025,0.0,.02462,-.004341,0.0*
1,1,.01,.02462,-.004341*
20,1,.01,.02462,-.004341,.023492,-.008551,0.0*
1,1,.01,.023492,-.008551*
20,1,.01,.023492,-.008551,.021651,-.0125,0.0*
1,1,.01,.021651,-.0125*
20,1,.01,.021651,-.0125,.019151,-.01607,0.0*
1,1,.01,.019151,-.01607*
20,1,.01,.019151,-.01607,.01607,-.019151,0.0*
1,1,.01,.01607,-.019151*
20,1,.01,.01607,-.019151,.0125,-.021651,0.0*
1,1,.01,.0125,-.021651*
20,1,.01,.0125,-.021651,.008551,-.023492,0.0*
1,1,.01,.008551,-.023492*
20,1,.01,.008551,-.023492,.004341,-.02462,0.0*
1,1,.01,.004341,-.02462*
20,1,.01,.004341,-.02462,0.0,-.025,0.0*
1,1,.01,0.0,-.025*
20,1,.01,0.0,-.025,-.004341,-.02462,0.0*
1,1,.01,-.004341,-.02462*
20,1,.01,-.004341,-.02462,-.008551,-.023492,0.0*
1,1,.01,-.008551,-.023492*
20,1,.01,-.008551,-.023492,-.0125,-.021651,0.0*
1,1,.01,-.0125,-.021651*
20,1,.01,-.0125,-.021651,-.01607,-.019151,0.0*
1,1,.01,-.01607,-.019151*
20,1,.01,-.01607,-.019151,-.019151,-.01607,0.0*
1,1,.01,-.019151,-.01607*
20,1,.01,-.019151,-.01607,-.021651,-.0125,0.0*
1,1,.01,-.021651,-.0125*
20,1,.01,-.021651,-.0125,-.023492,-.008551,0.0*
1,1,.01,-.023492,-.008551*
20,1,.01,-.023492,-.008551,-.02462,-.004341,0.0*
1,1,.01,-.02462,-.004341*
20,1,.01,-.02462,-.004341,-.025,0.0,0.0*
1,1,.01,-.025,0.0*
20,1,.01,-.025,0.0,-.02462,.004341,0.0*
1,1,.01,-.02462,.004341*
20,1,.01,-.02462,.004341,-.023492,.008551,0.0*
1,1,.01,-.023492,.008551*
20,1,.01,-.023492,.008551,-.021651,.0125,0.0*
1,1,.01,-.021651,.0125*
20,1,.01,-.021651,.0125,-.019151,.01607,0.0*
1,1,.01,-.019151,.01607*
20,1,.01,-.019151,.01607,-.01607,.019151,0.0*
1,1,.01,-.01607,.019151*
20,1,.01,-.01607,.019151,-.0125,.021651,0.0*
1,1,.01,-.0125,.021651*
20,1,.01,-.0125,.021651,-.008551,.023492,0.0*
1,1,.01,-.008551,.023492*
20,1,.01,-.008551,.023492,-.004341,.02462,0.0*
1,1,.01,-.004341,.02462*
20,1,.01,-.004341,.02462,0.0,.025,0.0*
1,1,.01,0.0,.025*
20,1,.01,0.0,.025,.004341,.02462,0.0*
1,1,.01,.004341,.02462*
20,1,.01,.004341,.02462,.008551,.023492,0.0*
1,1,.01,.008551,.023492*
20,1,.01,.008551,.023492,.0125,.021651,0.0*
1,1,.01,.0125,.021651*
20,1,.01,.0125,.021651,.01607,.019151,0.0*
1,1,.01,.01607,.019151*
20,1,.01,.01607,.019151,.019151,.01607,0.0*
1,1,.01,.019151,.01607*
20,1,.01,.019151,.01607,.021651,.0125,0.0*
1,1,.01,.021651,.0125*
20,1,.01,.021651,.0125,.023492,.008551,0.0*
1,1,.01,.023492,.008551*
20,1,.01,.023492,.008551,.02462,.004341,0.0*
1,1,.01,.02462,.004341*
20,1,.01,.02462,.004341,.025,0.0,0.0*
1,1,.01,.025,0.0*
1,1,.01,.0125,0.0*
20,1,.01,.0125,0.0,-.0125,0.0,0.0*
1,1,.01,-.0125,0.0*
1,1,.01,0.0,.0125*
20,1,.01,0.0,.0125,0.0,-.0125,0.0*
1,1,.01,0.0,-.0125*
%
%ADD10MACRO10*%
%ADD12C,.01*%
G75*
%LPD*%
G75*
G54D10*
X-115550Y-160250D03*
X31000Y80900D03*
Y91900D03*
X90000Y32900D03*
X80000Y51900D03*
X87063Y38837D03*
X87103Y101796D03*
X91500Y65400D03*
X128063Y38837D03*
G54D11*
X0Y0D03*
G54D12*
G01X-160500Y-174300D02*
Y-65000D01*
X335500D01*
Y-174300D01*
X-160500D01*
G01X-149495Y-136850D02*
Y-124350D01*
X-143605D01*
G01X-145775Y-130392D02*
X-149495D01*
G01X-136010Y-124350D02*
X-132290D01*
G01X-134150D02*
Y-136850D01*
G01X-136010D02*
X-132290D01*
G01X-120820Y-130600D02*
X-117720D01*
Y-134350D01*
X-118650Y-135600D01*
X-119735Y-136433D01*
X-121285Y-136850D01*
X-122835Y-136433D01*
X-123920Y-135600D01*
X-124850Y-134350D01*
X-125470Y-132892D01*
X-125780Y-131225D01*
Y-129767D01*
X-125470Y-128517D01*
X-124850Y-127058D01*
X-123920Y-125808D01*
X-122990Y-124975D01*
X-121750Y-124350D01*
X-120665D01*
X-119425Y-124767D01*
X-118495Y-125600D01*
G01X-112760Y-124350D02*
Y-133308D01*
X-112140Y-135184D01*
X-110900Y-136433D01*
X-109350Y-136850D01*
X-107800Y-136433D01*
X-106560Y-135184D01*
X-105940Y-133308D01*
Y-124350D01*
G01X-100050Y-136850D02*
Y-124350D01*
X-96175D01*
X-94935Y-124975D01*
X-94160Y-125808D01*
X-93850Y-127475D01*
X-94160Y-129142D01*
X-95090Y-130183D01*
X-96175Y-130808D01*
X-100050D01*
G01X-96175D02*
X-93850Y-136850D01*
G01X-81450D02*
X-87650D01*
Y-124350D01*
X-81450D01*
G01X-83930Y-130392D02*
X-87650D01*
G01X-160500Y-146200D02*
X335500D01*
G01X-160500Y-90000D02*
X335500D01*
G01X-160500Y-118100D02*
X335500D01*
G01X-70600D02*
Y-174300D01*
G01X-70910Y-83750D02*
Y-71250D01*
X-67810D01*
X-66570Y-71875D01*
X-65640Y-72708D01*
X-64865Y-73958D01*
X-64245Y-75417D01*
X-64090Y-77500D01*
X-64245Y-79583D01*
X-64865Y-81042D01*
X-65640Y-82292D01*
X-66570Y-83125D01*
X-67810Y-83750D01*
X-70910D01*
G01X-58200D02*
Y-71250D01*
X-54325D01*
X-53085Y-71875D01*
X-52310Y-72708D01*
X-52000Y-74375D01*
X-52310Y-76042D01*
X-53240Y-77083D01*
X-54325Y-77708D01*
X-58200D01*
G01X-54325D02*
X-52000Y-83750D01*
G01X-44560Y-71250D02*
X-40840D01*
G01X-42700D02*
Y-83750D01*
G01X-44560D02*
X-40840D01*
G01X-33400Y-71250D02*
Y-83750D01*
X-27200D01*
G01X-21000Y-71250D02*
Y-83750D01*
X-14800D01*
G01X10310Y-72292D02*
X9380Y-71667D01*
X8295Y-71250D01*
X7055D01*
X5660Y-71875D01*
X4575Y-72917D01*
X3800Y-74167D01*
X3180Y-76250D01*
X3025Y-78125D01*
X3335Y-80000D01*
X3800Y-81250D01*
X4730Y-82500D01*
X5815Y-83333D01*
X6900Y-83750D01*
X7985D01*
X9070Y-83333D01*
X10000Y-82709D01*
X10775Y-81875D01*
G01X16045Y-83750D02*
Y-71250D01*
G01X22555D02*
Y-83750D01*
G01Y-77500D02*
X16045D01*
G01X27825Y-83750D02*
X31700Y-71250D01*
X35575Y-83750D01*
G01X34180Y-79375D02*
X29220D01*
G01X41000Y-83750D02*
Y-71250D01*
X44875D01*
X46115Y-71875D01*
X46890Y-72708D01*
X47200Y-74375D01*
X46890Y-76042D01*
X45960Y-77083D01*
X44875Y-77708D01*
X41000D01*
G01X44875D02*
X47200Y-83750D01*
G01X56500Y-71250D02*
Y-83750D01*
G01X52935Y-71250D02*
X60065D01*
G01X68900Y-84167D02*
X68590Y-83958D01*
Y-83542D01*
X68900Y-83333D01*
X69210Y-83542D01*
Y-83958D01*
X68900Y-84167D01*
G01Y-78542D02*
X68590Y-78333D01*
Y-77917D01*
X68900Y-77708D01*
X69210Y-77917D01*
Y-78333D01*
X68900Y-78542D01*
G01X93700Y-71250D02*
Y-83750D01*
G01X90135Y-71250D02*
X97265D01*
G01X106100Y-83750D02*
X104860Y-83542D01*
X103775Y-82709D01*
X102845Y-81458D01*
X102225Y-80000D01*
X101915Y-78333D01*
Y-76667D01*
X102225Y-75000D01*
X102845Y-73542D01*
X103775Y-72292D01*
X104860Y-71458D01*
X106100Y-71250D01*
X107340Y-71458D01*
X108425Y-72292D01*
X109355Y-73542D01*
X109975Y-75000D01*
X110285Y-76667D01*
Y-78333D01*
X109975Y-80000D01*
X109355Y-81458D01*
X108425Y-82709D01*
X107340Y-83542D01*
X106100Y-83750D01*
G01X115400D02*
Y-71250D01*
X119120D01*
X120360Y-71875D01*
X121290Y-73333D01*
X121600Y-75000D01*
X121290Y-76667D01*
X120515Y-77917D01*
X119120Y-78542D01*
X115400D01*
G01X143300Y-71250D02*
Y-83750D01*
G01X141130Y-75417D02*
X145470D01*
G01X155700Y-83750D02*
X154770Y-83542D01*
X153840Y-82709D01*
X153220Y-81250D01*
X152910Y-79583D01*
X153220Y-77917D01*
X153840Y-76458D01*
X154770Y-75625D01*
X155700Y-75417D01*
X156630Y-75625D01*
X157560Y-76458D01*
X158180Y-77917D01*
X158335Y-79583D01*
X158180Y-81250D01*
X157560Y-82709D01*
X156630Y-83542D01*
X155700Y-83750D01*
G01X181740Y-77083D02*
X182360Y-76458D01*
X182825Y-75417D01*
X183135Y-73958D01*
X182825Y-72708D01*
X182205Y-71875D01*
X181120Y-71250D01*
X176935D01*
Y-83750D01*
X182050D01*
X183135Y-82917D01*
X183755Y-81667D01*
X184065Y-80208D01*
X183755Y-78750D01*
X182825Y-77500D01*
X181740Y-77083D01*
X176935D01*
G01X192900Y-83750D02*
X191660Y-83542D01*
X190575Y-82709D01*
X189645Y-81458D01*
X189025Y-80000D01*
X188715Y-78333D01*
Y-76667D01*
X189025Y-75000D01*
X189645Y-73542D01*
X190575Y-72292D01*
X191660Y-71458D01*
X192900Y-71250D01*
X194140Y-71458D01*
X195225Y-72292D01*
X196155Y-73542D01*
X196775Y-75000D01*
X197085Y-76667D01*
Y-78333D01*
X196775Y-80000D01*
X196155Y-81458D01*
X195225Y-82709D01*
X194140Y-83542D01*
X192900Y-83750D01*
G01X205300Y-71250D02*
Y-83750D01*
G01X201735Y-71250D02*
X208865D01*
G01X217700D02*
Y-83750D01*
G01X214135Y-71250D02*
X221265D01*
G01X230100Y-83750D02*
X228860Y-83542D01*
X227775Y-82709D01*
X226845Y-81458D01*
X226225Y-80000D01*
X225915Y-78333D01*
Y-76667D01*
X226225Y-75000D01*
X226845Y-73542D01*
X227775Y-72292D01*
X228860Y-71458D01*
X230100Y-71250D01*
X231340Y-71458D01*
X232425Y-72292D01*
X233355Y-73542D01*
X233975Y-75000D01*
X234285Y-76667D01*
Y-78333D01*
X233975Y-80000D01*
X233355Y-81458D01*
X232425Y-82709D01*
X231340Y-83542D01*
X230100Y-83750D01*
G01X238470D02*
Y-71250D01*
X242500Y-81667D01*
X246530Y-71250D01*
Y-83750D01*
G01X-47195Y-136850D02*
Y-124350D01*
X-41305D01*
G01X-43475Y-130392D02*
X-47195D01*
G01X-33710Y-124350D02*
X-29990D01*
G01X-31850D02*
Y-136850D01*
G01X-33710D02*
X-29990D01*
G01X-23015D02*
Y-124350D01*
X-15885Y-136850D01*
Y-124350D01*
G01X-8910D02*
X-5190D01*
G01X-7050D02*
Y-136850D01*
G01X-8910D02*
X-5190D01*
G01X2095Y-135184D02*
X3335Y-136225D01*
X4730Y-136850D01*
X5970D01*
X7210Y-136225D01*
X8140Y-135184D01*
X8605Y-133725D01*
X8295Y-132267D01*
X7520Y-131017D01*
X6125Y-130183D01*
X4265Y-129767D01*
X3180Y-128933D01*
X2715Y-127475D01*
X3025Y-126017D01*
X3800Y-124975D01*
X4885Y-124350D01*
X5970D01*
X7055Y-124767D01*
X7985Y-125808D01*
G01X14495Y-136850D02*
Y-124350D01*
G01X21005D02*
Y-136850D01*
G01Y-130600D02*
X14495D01*
G01X33250Y-136850D02*
X27050D01*
Y-124350D01*
X33250D01*
G01X30770Y-130392D02*
X27050D01*
G01X39140Y-136850D02*
Y-124350D01*
X42240D01*
X43480Y-124975D01*
X44410Y-125808D01*
X45185Y-127058D01*
X45805Y-128517D01*
X45960Y-130600D01*
X45805Y-132683D01*
X45185Y-134142D01*
X44410Y-135392D01*
X43480Y-136225D01*
X42240Y-136850D01*
X39140D01*
G01X50300Y-141017D02*
X59600D01*
G01X64095Y-135184D02*
X65335Y-136225D01*
X66730Y-136850D01*
X67970D01*
X69210Y-136225D01*
X70140Y-135184D01*
X70605Y-133725D01*
X70295Y-132267D01*
X69520Y-131017D01*
X68125Y-130183D01*
X66265Y-129767D01*
X65180Y-128933D01*
X64715Y-127475D01*
X65025Y-126017D01*
X65800Y-124975D01*
X66885Y-124350D01*
X67970D01*
X69055Y-124767D01*
X69985Y-125808D01*
G01X77890Y-124350D02*
X81610D01*
G01X79750D02*
Y-136850D01*
G01X77890D02*
X81610D01*
G01X89205Y-124350D02*
X95095D01*
X89205Y-136850D01*
X95095D01*
G01X107650D02*
X101450D01*
Y-124350D01*
X107650D01*
G01X105170Y-130392D02*
X101450D01*
G01X-40375Y-108750D02*
X-36500Y-96250D01*
X-32625Y-108750D01*
G01X-34020Y-104375D02*
X-38980D01*
G01X-27200Y-96250D02*
Y-108750D01*
X-21000D01*
G01X-14800Y-96250D02*
Y-108750D01*
X-8600D01*
G01X9690Y-96250D02*
Y-105208D01*
X10310Y-107084D01*
X11550Y-108333D01*
X13100Y-108750D01*
X14650Y-108333D01*
X15890Y-107084D01*
X16510Y-105208D01*
Y-96250D01*
G01X21935Y-108750D02*
Y-96250D01*
X29065Y-108750D01*
Y-96250D01*
G01X36040D02*
X39760D01*
G01X37900D02*
Y-108750D01*
G01X36040D02*
X39760D01*
G01X50300Y-96250D02*
Y-108750D01*
G01X46735Y-96250D02*
X53865D01*
G01X59445Y-107084D02*
X60685Y-108125D01*
X62080Y-108750D01*
X63320D01*
X64560Y-108125D01*
X65490Y-107084D01*
X65955Y-105625D01*
X65645Y-104167D01*
X64870Y-102917D01*
X63475Y-102083D01*
X61615Y-101667D01*
X60530Y-100833D01*
X60065Y-99375D01*
X60375Y-97917D01*
X61150Y-96875D01*
X62235Y-96250D01*
X63320D01*
X64405Y-96667D01*
X65335Y-97708D01*
G01X83625Y-108750D02*
X87500Y-96250D01*
X91375Y-108750D01*
G01X89980Y-104375D02*
X85020D01*
G01X96800Y-108750D02*
Y-96250D01*
X100675D01*
X101915Y-96875D01*
X102690Y-97708D01*
X103000Y-99375D01*
X102690Y-101042D01*
X101760Y-102083D01*
X100675Y-102708D01*
X96800D01*
G01X100675D02*
X103000Y-108750D01*
G01X115400D02*
X109200D01*
Y-96250D01*
X115400D01*
G01X112920Y-102292D02*
X109200D01*
G01X135240Y-96250D02*
X138960D01*
G01X137100D02*
Y-108750D01*
G01X135240D02*
X138960D01*
G01X145935D02*
Y-96250D01*
X153065Y-108750D01*
Y-96250D01*
G01X170270Y-108750D02*
Y-96250D01*
X174300Y-106667D01*
X178330Y-96250D01*
Y-108750D01*
G01X184840Y-96250D02*
X188560D01*
G01X186700D02*
Y-108750D01*
G01X184840D02*
X188560D01*
G01X196000Y-96250D02*
Y-108750D01*
X202200D01*
G01X208245Y-107084D02*
X209485Y-108125D01*
X210880Y-108750D01*
X212120D01*
X213360Y-108125D01*
X214290Y-107084D01*
X214755Y-105625D01*
X214445Y-104167D01*
X213670Y-102917D01*
X212275Y-102083D01*
X210415Y-101667D01*
X209330Y-100833D01*
X208865Y-99375D01*
X209175Y-97917D01*
X209950Y-96875D01*
X211035Y-96250D01*
X212120D01*
X213205Y-96667D01*
X214135Y-97708D01*
G01X5350Y-166500D02*
Y-154000D01*
X3490Y-156500D01*
G01Y-166500D02*
X7210D01*
G01X14340Y-164625D02*
X15270Y-165667D01*
X16355Y-166292D01*
X17750Y-166500D01*
X19145Y-166083D01*
X20230Y-165250D01*
X21005Y-163792D01*
X21160Y-162125D01*
X20850Y-160458D01*
X20075Y-159417D01*
X18990Y-158583D01*
X17905Y-158375D01*
X16820Y-158583D01*
X15425Y-159417D01*
X15890Y-154000D01*
X20075D01*
G01X30150Y-166917D02*
X29840Y-166708D01*
Y-166292D01*
X30150Y-166083D01*
X30460Y-166292D01*
Y-166708D01*
X30150Y-166917D01*
G01X42240Y-166500D02*
X42550Y-163792D01*
X43015Y-161500D01*
X43635Y-159417D01*
X44410Y-157125D01*
X45650Y-154000D01*
X39450D01*
G01X51540Y-164625D02*
X52470Y-165667D01*
X53555Y-166292D01*
X54950Y-166500D01*
X56345Y-166083D01*
X57430Y-165250D01*
X58205Y-163792D01*
X58360Y-162125D01*
X58050Y-160458D01*
X57275Y-159417D01*
X56190Y-158583D01*
X55105Y-158375D01*
X54020Y-158583D01*
X52625Y-159417D01*
X53090Y-154000D01*
X57275D01*
G01X0Y-100D02*
Y157380D01*
X157480D01*
Y-100D01*
X0D01*
G01X4000Y3900D02*
Y153380D01*
X153480D01*
Y3900D01*
X4000D01*
G01D02*
Y153380D01*
X153480D01*
Y3900D01*
X4000D01*
G01X130900Y-118100D02*
Y-174300D01*
G01X160350Y-166500D02*
Y-154000D01*
X164070D01*
X165310Y-154625D01*
X166240Y-156083D01*
X166550Y-157750D01*
X166240Y-159417D01*
X165465Y-160667D01*
X164070Y-161292D01*
X160350D01*
G01X172750Y-154000D02*
Y-166500D01*
X178950D01*
G01X184375D02*
X188250Y-154000D01*
X192125Y-166500D01*
G01X190730Y-162125D02*
X185770D01*
G01X200650Y-154000D02*
Y-166500D01*
G01X197085Y-154000D02*
X204215D01*
G01X216150Y-166500D02*
X209950D01*
Y-154000D01*
X216150D01*
G01X213670Y-160042D02*
X209950D01*
G01X222040Y-166500D02*
Y-154000D01*
X225140D01*
X226380Y-154625D01*
X227310Y-155458D01*
X228085Y-156708D01*
X228705Y-158167D01*
X228860Y-160250D01*
X228705Y-162333D01*
X228085Y-163792D01*
X227310Y-165042D01*
X226380Y-165875D01*
X225140Y-166500D01*
X222040D01*
G01X160350Y-136850D02*
Y-124350D01*
X164070D01*
X165310Y-124975D01*
X166240Y-126433D01*
X166550Y-128100D01*
X166240Y-129767D01*
X165465Y-131017D01*
X164070Y-131642D01*
X160350D01*
G01X172750Y-124350D02*
Y-136850D01*
X178950D01*
G01X184375D02*
X188250Y-124350D01*
X192125Y-136850D01*
G01X190730Y-132475D02*
X185770D01*
G01X200650Y-124350D02*
Y-136850D01*
G01X197085Y-124350D02*
X204215D01*
G01X216150Y-136850D02*
X209950D01*
Y-124350D01*
X216150D01*
G01X213670Y-130392D02*
X209950D01*
G01X222040Y-136850D02*
Y-124350D01*
X225140D01*
X226380Y-124975D01*
X227310Y-125808D01*
X228085Y-127058D01*
X228705Y-128517D01*
X228860Y-130600D01*
X228705Y-132683D01*
X228085Y-134142D01*
X227310Y-135392D01*
X226380Y-136225D01*
X225140Y-136850D01*
X222040D01*
G01X236900Y61000D02*
X379300D01*
G01X236900Y66400D02*
X379300D01*
G01X236900Y71800D02*
X379300D01*
G01X236900Y77200D02*
X379300D01*
G01X236900Y82600D02*
X379300D01*
G01X236900Y88000D02*
X379300D01*
G01X236900Y61000D02*
Y109600D01*
G01Y93400D02*
X379300D01*
G01X236900Y98800D02*
X379300D01*
G01X236900Y104200D02*
X379300D01*
G01X236900Y109600D02*
X379300D01*
G01X258000Y-118100D02*
Y-174300D01*
G01X239867Y75300D02*
X240067Y75600D01*
X240300Y75750D01*
X240567Y75800D01*
X240900Y75700D01*
X241133Y75450D01*
X241200Y75150D01*
X241167Y74850D01*
X241033Y74600D01*
X240367Y74100D01*
X240067Y73750D01*
X239867Y73250D01*
X239800Y72800D01*
X241200D01*
G01X248567Y74400D02*
X248700Y74550D01*
X248800Y74800D01*
X248867Y75150D01*
X248800Y75450D01*
X248667Y75650D01*
X248433Y75800D01*
X247533D01*
Y72800D01*
X248633D01*
X248867Y73000D01*
X249000Y73300D01*
X249067Y73650D01*
X249000Y74000D01*
X248800Y74300D01*
X248567Y74400D01*
X247533D01*
G01X250900Y72800D02*
X250633Y72850D01*
X250400Y73050D01*
X250200Y73350D01*
X250067Y73700D01*
X250000Y74100D01*
Y74500D01*
X250067Y74900D01*
X250200Y75250D01*
X250400Y75550D01*
X250633Y75750D01*
X250900Y75800D01*
X251167Y75750D01*
X251400Y75550D01*
X251600Y75250D01*
X251733Y74900D01*
X251800Y74500D01*
Y74100D01*
X251733Y73700D01*
X251600Y73350D01*
X251400Y73050D01*
X251167Y72850D01*
X250900Y72800D01*
G01X253500Y75800D02*
Y72800D01*
G01X252733Y75800D02*
X254267D01*
G01X256100D02*
Y72800D01*
G01X255333Y75800D02*
X256867D01*
G01X258700Y72800D02*
X258433Y72850D01*
X258200Y73050D01*
X258000Y73350D01*
X257867Y73700D01*
X257800Y74100D01*
Y74500D01*
X257867Y74900D01*
X258000Y75250D01*
X258200Y75550D01*
X258433Y75750D01*
X258700Y75800D01*
X258967Y75750D01*
X259200Y75550D01*
X259400Y75250D01*
X259533Y74900D01*
X259600Y74500D01*
Y74100D01*
X259533Y73700D01*
X259400Y73350D01*
X259200Y73050D01*
X258967Y72850D01*
X258700Y72800D01*
G01X260433D02*
Y75800D01*
X261300Y73300D01*
X262167Y75800D01*
Y72800D01*
G01X268367Y78200D02*
Y81200D01*
X269033D01*
X269300Y81050D01*
X269500Y80850D01*
X269667Y80550D01*
X269800Y80200D01*
X269833Y79700D01*
X269800Y79200D01*
X269667Y78850D01*
X269500Y78550D01*
X269300Y78350D01*
X269033Y78200D01*
X268367D01*
G01X271300Y81200D02*
X272100D01*
G01X271700D02*
Y78200D01*
G01X271300D02*
X272100D01*
G01X274967D02*
X273633D01*
Y81200D01*
X274967D01*
G01X274433Y79750D02*
X273633D01*
G01X276233Y81200D02*
Y78200D01*
X277567D01*
G01X280167D02*
X278833D01*
Y81200D01*
X280167D01*
G01X279633Y79750D02*
X278833D01*
G01X282833Y80950D02*
X282633Y81100D01*
X282400Y81200D01*
X282133D01*
X281833Y81050D01*
X281600Y80800D01*
X281433Y80500D01*
X281300Y80000D01*
X281267Y79550D01*
X281333Y79100D01*
X281433Y78800D01*
X281633Y78500D01*
X281867Y78300D01*
X282100Y78200D01*
X282333D01*
X282567Y78300D01*
X282767Y78450D01*
X282933Y78650D01*
G01X284700Y81200D02*
Y78200D01*
G01X283933Y81200D02*
X285467D01*
G01X286633Y78200D02*
Y81200D01*
X287467D01*
X287733Y81050D01*
X287900Y80850D01*
X287967Y80450D01*
X287900Y80050D01*
X287700Y79800D01*
X287467Y79650D01*
X286633D01*
G01X287467D02*
X287967Y78200D01*
G01X289500Y81200D02*
X290300D01*
G01X289900D02*
Y78200D01*
G01X289500D02*
X290300D01*
G01X293233Y80950D02*
X293033Y81100D01*
X292800Y81200D01*
X292533D01*
X292233Y81050D01*
X292000Y80800D01*
X291833Y80500D01*
X291700Y80000D01*
X291667Y79550D01*
X291733Y79100D01*
X291833Y78800D01*
X292033Y78500D01*
X292267Y78300D01*
X292500Y78200D01*
X292733D01*
X292967Y78300D01*
X293167Y78450D01*
X293333Y78650D01*
G01X240500Y83600D02*
Y86600D01*
X240100Y86000D01*
G01Y83600D02*
X240900D01*
G01X256100Y86600D02*
Y83600D01*
G01X255333Y86600D02*
X256867D01*
G01X258700Y83600D02*
X258433Y83650D01*
X258200Y83850D01*
X258000Y84150D01*
X257867Y84500D01*
X257800Y84900D01*
Y85300D01*
X257867Y85700D01*
X258000Y86050D01*
X258200Y86350D01*
X258433Y86550D01*
X258700Y86600D01*
X258967Y86550D01*
X259200Y86350D01*
X259400Y86050D01*
X259533Y85700D01*
X259600Y85300D01*
Y84900D01*
X259533Y84500D01*
X259400Y84150D01*
X259200Y83850D01*
X258967Y83650D01*
X258700Y83600D01*
G01X260633D02*
Y86600D01*
X261433D01*
X261700Y86450D01*
X261900Y86100D01*
X261967Y85700D01*
X261900Y85300D01*
X261733Y85000D01*
X261433Y84850D01*
X260633D01*
G01X244700Y66400D02*
Y98800D01*
G01X265500Y66400D02*
Y98800D01*
G01X239833Y93400D02*
X240500Y97400D01*
G01X241167D02*
X240500Y93400D01*
G01X239500Y94900D02*
X241500D01*
G01Y95900D02*
X239500D01*
G01X252733Y94400D02*
Y97400D01*
X254267Y94400D01*
Y97400D01*
G01X255267Y94400D02*
X256100Y97400D01*
X256933Y94400D01*
G01X256633Y95450D02*
X255567D01*
G01X257833Y94400D02*
Y97400D01*
X258700Y94900D01*
X259567Y97400D01*
Y94400D01*
G01X261967D02*
X260633D01*
Y97400D01*
X261967D01*
G01X261433Y95950D02*
X260633D01*
G01X296750Y-166500D02*
X297835Y-166292D01*
X299075Y-165667D01*
X299850Y-164625D01*
X300160Y-163167D01*
X299850Y-161709D01*
X298920Y-160458D01*
X297525Y-159833D01*
X295975D01*
X295045Y-159417D01*
X294270Y-158375D01*
X293960Y-156917D01*
X294425Y-155458D01*
X295510Y-154417D01*
X296750Y-154000D01*
X297990Y-154417D01*
X299075Y-155458D01*
X299540Y-156917D01*
X299230Y-158375D01*
X298455Y-159417D01*
X297525Y-159833D01*
X295975D01*
X294580Y-160458D01*
X293650Y-161709D01*
X293340Y-163167D01*
X293650Y-164625D01*
X294425Y-165667D01*
X295665Y-166292D01*
X296750Y-166500D01*
G01X284350Y-136850D02*
X283110Y-136642D01*
X282025Y-135809D01*
X281095Y-134558D01*
X280475Y-133100D01*
X280165Y-131433D01*
Y-129767D01*
X280475Y-128100D01*
X281095Y-126642D01*
X282025Y-125392D01*
X283110Y-124558D01*
X284350Y-124350D01*
X285590Y-124558D01*
X286675Y-125392D01*
X287605Y-126642D01*
X288225Y-128100D01*
X288535Y-129767D01*
Y-131433D01*
X288225Y-133100D01*
X287605Y-134558D01*
X286675Y-135809D01*
X285590Y-136642D01*
X284350Y-136850D01*
G01X285590Y-133517D02*
X287450Y-136850D01*
G01X296750Y-124350D02*
Y-136850D01*
G01X293185Y-124350D02*
X300315D01*
G01X309150Y-136850D02*
Y-131225D01*
X306050Y-124350D01*
G01X312250D02*
X309150Y-131225D01*
G01X282100Y65000D02*
Y62000D01*
G01X281333Y65000D02*
X282867D01*
G01X284700Y62000D02*
X284433Y62050D01*
X284200Y62250D01*
X284000Y62550D01*
X283867Y62900D01*
X283800Y63300D01*
Y63700D01*
X283867Y64100D01*
X284000Y64450D01*
X284200Y64750D01*
X284433Y64950D01*
X284700Y65000D01*
X284967Y64950D01*
X285200Y64750D01*
X285400Y64450D01*
X285533Y64100D01*
X285600Y63700D01*
Y63300D01*
X285533Y62900D01*
X285400Y62550D01*
X285200Y62250D01*
X284967Y62050D01*
X284700Y62000D01*
G01X287300Y65000D02*
Y62000D01*
G01X286533Y65000D02*
X288067D01*
G01X289067Y62000D02*
X289900Y65000D01*
X290733Y62000D01*
G01X290433Y63050D02*
X289367D01*
G01X291833Y65000D02*
Y62000D01*
X293167D01*
G01X297700Y65000D02*
Y62000D01*
G01X296933Y65000D02*
X298467D01*
G01X299600Y62000D02*
Y65000D01*
G01X301000D02*
Y62000D01*
G01Y63500D02*
X299600D01*
G01X302500Y65000D02*
X303300D01*
G01X302900D02*
Y62000D01*
G01X302500D02*
X303300D01*
G01X306233Y64750D02*
X306033Y64900D01*
X305800Y65000D01*
X305533D01*
X305233Y64850D01*
X305000Y64600D01*
X304833Y64300D01*
X304700Y63800D01*
X304667Y63350D01*
X304733Y62900D01*
X304833Y62600D01*
X305033Y62300D01*
X305267Y62100D01*
X305500Y62000D01*
X305733D01*
X305967Y62100D01*
X306167Y62250D01*
X306333Y62450D01*
G01X307367Y62000D02*
Y65000D01*
G01X308633D02*
X307367Y63150D01*
G01X308833Y62000D02*
X307933Y64000D01*
G01X309933Y62000D02*
Y65000D01*
X311467Y62000D01*
Y65000D01*
G01X313967Y62000D02*
X312633D01*
Y65000D01*
X313967D01*
G01X313433Y63550D02*
X312633D01*
G01X315200Y62400D02*
X315467Y62150D01*
X315767Y62000D01*
X316033D01*
X316300Y62150D01*
X316500Y62400D01*
X316600Y62750D01*
X316533Y63100D01*
X316367Y63400D01*
X316067Y63600D01*
X315667Y63700D01*
X315433Y63900D01*
X315333Y64250D01*
X315400Y64600D01*
X315567Y64850D01*
X315800Y65000D01*
X316033D01*
X316267Y64900D01*
X316467Y64650D01*
G01X317800Y62400D02*
X318067Y62150D01*
X318367Y62000D01*
X318633D01*
X318900Y62150D01*
X319100Y62400D01*
X319200Y62750D01*
X319133Y63100D01*
X318967Y63400D01*
X318667Y63600D01*
X318267Y63700D01*
X318033Y63900D01*
X317933Y64250D01*
X318000Y64600D01*
X318167Y64850D01*
X318400Y65000D01*
X318633D01*
X318867Y64900D01*
X319067Y64650D01*
G01X276200Y67800D02*
X276467Y67550D01*
X276767Y67400D01*
X277033D01*
X277300Y67550D01*
X277500Y67800D01*
X277600Y68150D01*
X277533Y68500D01*
X277367Y68800D01*
X277067Y69000D01*
X276667Y69100D01*
X276433Y69300D01*
X276333Y69650D01*
X276400Y70000D01*
X276567Y70250D01*
X276800Y70400D01*
X277033D01*
X277267Y70300D01*
X277467Y70050D01*
G01X278767Y70400D02*
Y68250D01*
X278900Y67800D01*
X279167Y67500D01*
X279500Y67400D01*
X279833Y67500D01*
X280100Y67800D01*
X280233Y68250D01*
Y70400D01*
G01X281433Y67400D02*
Y70400D01*
X282267D01*
X282533Y70250D01*
X282700Y70050D01*
X282767Y69650D01*
X282700Y69250D01*
X282500Y69000D01*
X282267Y68850D01*
X281433D01*
G01X282267D02*
X282767Y67400D01*
G01X284067D02*
Y70400D01*
X285333D01*
G01X284867Y68950D02*
X284067D01*
G01X286467Y67400D02*
X287300Y70400D01*
X288133Y67400D01*
G01X287833Y68450D02*
X286767D01*
G01X290633Y70150D02*
X290433Y70300D01*
X290200Y70400D01*
X289933D01*
X289633Y70250D01*
X289400Y70000D01*
X289233Y69700D01*
X289100Y69200D01*
X289067Y68750D01*
X289133Y68300D01*
X289233Y68000D01*
X289433Y67700D01*
X289667Y67500D01*
X289900Y67400D01*
X290133D01*
X290367Y67500D01*
X290567Y67650D01*
X290733Y67850D01*
G01X293167Y67400D02*
X291833D01*
Y70400D01*
X293167D01*
G01X292633Y68950D02*
X291833D01*
G01X272433Y75550D02*
X272233Y75700D01*
X272000Y75800D01*
X271733D01*
X271433Y75650D01*
X271200Y75400D01*
X271033Y75100D01*
X270900Y74600D01*
X270867Y74150D01*
X270933Y73700D01*
X271033Y73400D01*
X271233Y73100D01*
X271467Y72900D01*
X271700Y72800D01*
X271933D01*
X272167Y72900D01*
X272367Y73050D01*
X272533Y73250D01*
G01X274300Y72800D02*
X274033Y72850D01*
X273800Y73050D01*
X273600Y73350D01*
X273467Y73700D01*
X273400Y74100D01*
Y74500D01*
X273467Y74900D01*
X273600Y75250D01*
X273800Y75550D01*
X274033Y75750D01*
X274300Y75800D01*
X274567Y75750D01*
X274800Y75550D01*
X275000Y75250D01*
X275133Y74900D01*
X275200Y74500D01*
Y74100D01*
X275133Y73700D01*
X275000Y73350D01*
X274800Y73050D01*
X274567Y72850D01*
X274300Y72800D01*
G01X276133D02*
Y75800D01*
X277667Y72800D01*
Y75800D01*
G01X278767Y72800D02*
Y75800D01*
X279433D01*
X279700Y75650D01*
X279900Y75450D01*
X280067Y75150D01*
X280200Y74800D01*
X280233Y74300D01*
X280200Y73800D01*
X280067Y73450D01*
X279900Y73150D01*
X279700Y72950D01*
X279433Y72800D01*
X278767D01*
G01X281367Y75800D02*
Y73650D01*
X281500Y73200D01*
X281767Y72900D01*
X282100Y72800D01*
X282433Y72900D01*
X282700Y73200D01*
X282833Y73650D01*
Y75800D01*
G01X285433Y75550D02*
X285233Y75700D01*
X285000Y75800D01*
X284733D01*
X284433Y75650D01*
X284200Y75400D01*
X284033Y75100D01*
X283900Y74600D01*
X283867Y74150D01*
X283933Y73700D01*
X284033Y73400D01*
X284233Y73100D01*
X284467Y72900D01*
X284700Y72800D01*
X284933D01*
X285167Y72900D01*
X285367Y73050D01*
X285533Y73250D01*
G01X287300Y75800D02*
Y72800D01*
G01X286533Y75800D02*
X288067D01*
G01X289900Y72800D02*
X289633Y72850D01*
X289400Y73050D01*
X289200Y73350D01*
X289067Y73700D01*
X289000Y74100D01*
Y74500D01*
X289067Y74900D01*
X289200Y75250D01*
X289400Y75550D01*
X289633Y75750D01*
X289900Y75800D01*
X290167Y75750D01*
X290400Y75550D01*
X290600Y75250D01*
X290733Y74900D01*
X290800Y74500D01*
Y74100D01*
X290733Y73700D01*
X290600Y73350D01*
X290400Y73050D01*
X290167Y72850D01*
X289900Y72800D01*
G01X291833D02*
Y75800D01*
X292667D01*
X292933Y75650D01*
X293100Y75450D01*
X293167Y75050D01*
X293100Y74650D01*
X292900Y74400D01*
X292667Y74250D01*
X291833D01*
G01X292667D02*
X293167Y72800D01*
G01X272433Y86350D02*
X272233Y86500D01*
X272000Y86600D01*
X271733D01*
X271433Y86450D01*
X271200Y86200D01*
X271033Y85900D01*
X270900Y85400D01*
X270867Y84950D01*
X270933Y84500D01*
X271033Y84200D01*
X271233Y83900D01*
X271467Y83700D01*
X271700Y83600D01*
X271933D01*
X272167Y83700D01*
X272367Y83850D01*
X272533Y84050D01*
G01X274300Y83600D02*
X274033Y83650D01*
X273800Y83850D01*
X273600Y84150D01*
X273467Y84500D01*
X273400Y84900D01*
Y85300D01*
X273467Y85700D01*
X273600Y86050D01*
X273800Y86350D01*
X274033Y86550D01*
X274300Y86600D01*
X274567Y86550D01*
X274800Y86350D01*
X275000Y86050D01*
X275133Y85700D01*
X275200Y85300D01*
Y84900D01*
X275133Y84500D01*
X275000Y84150D01*
X274800Y83850D01*
X274567Y83650D01*
X274300Y83600D01*
G01X276133D02*
Y86600D01*
X277667Y83600D01*
Y86600D01*
G01X278767Y83600D02*
Y86600D01*
X279433D01*
X279700Y86450D01*
X279900Y86250D01*
X280067Y85950D01*
X280200Y85600D01*
X280233Y85100D01*
X280200Y84600D01*
X280067Y84250D01*
X279900Y83950D01*
X279700Y83750D01*
X279433Y83600D01*
X278767D01*
G01X281367Y86600D02*
Y84450D01*
X281500Y84000D01*
X281767Y83700D01*
X282100Y83600D01*
X282433Y83700D01*
X282700Y84000D01*
X282833Y84450D01*
Y86600D01*
G01X285433Y86350D02*
X285233Y86500D01*
X285000Y86600D01*
X284733D01*
X284433Y86450D01*
X284200Y86200D01*
X284033Y85900D01*
X283900Y85400D01*
X283867Y84950D01*
X283933Y84500D01*
X284033Y84200D01*
X284233Y83900D01*
X284467Y83700D01*
X284700Y83600D01*
X284933D01*
X285167Y83700D01*
X285367Y83850D01*
X285533Y84050D01*
G01X287300Y86600D02*
Y83600D01*
G01X286533Y86600D02*
X288067D01*
G01X289900Y83600D02*
X289633Y83650D01*
X289400Y83850D01*
X289200Y84150D01*
X289067Y84500D01*
X289000Y84900D01*
Y85300D01*
X289067Y85700D01*
X289200Y86050D01*
X289400Y86350D01*
X289633Y86550D01*
X289900Y86600D01*
X290167Y86550D01*
X290400Y86350D01*
X290600Y86050D01*
X290733Y85700D01*
X290800Y85300D01*
Y84900D01*
X290733Y84500D01*
X290600Y84150D01*
X290400Y83850D01*
X290167Y83650D01*
X289900Y83600D01*
G01X291833D02*
Y86600D01*
X292667D01*
X292933Y86450D01*
X293100Y86250D01*
X293167Y85850D01*
X293100Y85450D01*
X292900Y85200D01*
X292667Y85050D01*
X291833D01*
G01X292667D02*
X293167Y83600D01*
G01X276200Y89400D02*
X276467Y89150D01*
X276767Y89000D01*
X277033D01*
X277300Y89150D01*
X277500Y89400D01*
X277600Y89750D01*
X277533Y90100D01*
X277367Y90400D01*
X277067Y90600D01*
X276667Y90700D01*
X276433Y90900D01*
X276333Y91250D01*
X276400Y91600D01*
X276567Y91850D01*
X276800Y92000D01*
X277033D01*
X277267Y91900D01*
X277467Y91650D01*
G01X278767Y92000D02*
Y89850D01*
X278900Y89400D01*
X279167Y89100D01*
X279500Y89000D01*
X279833Y89100D01*
X280100Y89400D01*
X280233Y89850D01*
Y92000D01*
G01X281433Y89000D02*
Y92000D01*
X282267D01*
X282533Y91850D01*
X282700Y91650D01*
X282767Y91250D01*
X282700Y90850D01*
X282500Y90600D01*
X282267Y90450D01*
X281433D01*
G01X282267D02*
X282767Y89000D01*
G01X284067D02*
Y92000D01*
X285333D01*
G01X284867Y90550D02*
X284067D01*
G01X286467Y89000D02*
X287300Y92000D01*
X288133Y89000D01*
G01X287833Y90050D02*
X286767D01*
G01X290633Y91750D02*
X290433Y91900D01*
X290200Y92000D01*
X289933D01*
X289633Y91850D01*
X289400Y91600D01*
X289233Y91300D01*
X289100Y90800D01*
X289067Y90350D01*
X289133Y89900D01*
X289233Y89600D01*
X289433Y89300D01*
X289667Y89100D01*
X289900Y89000D01*
X290133D01*
X290367Y89100D01*
X290567Y89250D01*
X290733Y89450D01*
G01X293167Y89000D02*
X291833D01*
Y92000D01*
X293167D01*
G01X292633Y90550D02*
X291833D01*
G01X296700Y66400D02*
Y98800D01*
G01X284700Y97400D02*
Y94400D01*
G01X283933Y97400D02*
X285467D01*
G01X287300Y94400D02*
Y95750D01*
X286633Y97400D01*
G01X287967D02*
X287300Y95750D01*
G01X289233Y94400D02*
Y97400D01*
X290033D01*
X290300Y97250D01*
X290500Y96900D01*
X290567Y96500D01*
X290500Y96100D01*
X290333Y95800D01*
X290033Y95650D01*
X289233D01*
G01X293167Y94400D02*
X291833D01*
Y97400D01*
X293167D01*
G01X292633Y95950D02*
X291833D01*
G01X290167Y102800D02*
Y100650D01*
X290300Y100200D01*
X290567Y99900D01*
X290900Y99800D01*
X291233Y99900D01*
X291500Y100200D01*
X291633Y100650D01*
Y102800D01*
G01X292933Y99800D02*
Y101800D01*
G01Y101300D02*
X293067Y101550D01*
X293267Y101750D01*
X293533Y101800D01*
X293767Y101750D01*
X293967Y101550D01*
X294067Y101200D01*
Y99800D01*
G01X296100Y101800D02*
Y99800D01*
G01Y102600D02*
X296033Y102650D01*
Y102750D01*
X296100Y102800D01*
X296167Y102750D01*
Y102650D01*
X296100Y102600D01*
G01X298700Y102800D02*
Y99800D01*
G01X298233Y101800D02*
X299167D01*
G01X303467Y100350D02*
X304333D01*
G01Y101250D02*
X303467D01*
G01X308233Y99800D02*
Y102800D01*
X309100Y100300D01*
X309967Y102800D01*
Y99800D01*
G01X311700Y101800D02*
Y99800D01*
G01Y102600D02*
X311633Y102650D01*
Y102750D01*
X311700Y102800D01*
X311767Y102750D01*
Y102650D01*
X311700Y102600D01*
G01X314300Y99800D02*
Y102800D01*
G01X316400Y100150D02*
X316567Y99950D01*
X316800Y99800D01*
X317000D01*
X317200Y99900D01*
X317333Y100050D01*
X317400Y100250D01*
X317367Y100550D01*
X317233Y100700D01*
X316633Y101000D01*
X316500Y101350D01*
X316567Y101600D01*
X316700Y101750D01*
X316900Y101800D01*
X317100Y101750D01*
X317300Y101600D01*
G01X287600Y105600D02*
X287867Y105350D01*
X288167Y105200D01*
X288433D01*
X288700Y105350D01*
X288900Y105600D01*
X289000Y105950D01*
X288933Y106300D01*
X288767Y106600D01*
X288467Y106800D01*
X288067Y106900D01*
X287833Y107100D01*
X287733Y107450D01*
X287800Y107800D01*
X287967Y108050D01*
X288200Y108200D01*
X288433D01*
X288667Y108100D01*
X288867Y107850D01*
G01X290900Y108200D02*
Y105200D01*
G01X290133Y108200D02*
X291667D01*
G01X292667Y105200D02*
X293500Y108200D01*
X294333Y105200D01*
G01X294033Y106250D02*
X292967D01*
G01X296833Y107950D02*
X296633Y108100D01*
X296400Y108200D01*
X296133D01*
X295833Y108050D01*
X295600Y107800D01*
X295433Y107500D01*
X295300Y107000D01*
X295267Y106550D01*
X295333Y106100D01*
X295433Y105800D01*
X295633Y105500D01*
X295867Y105300D01*
X296100Y105200D01*
X296333D01*
X296567Y105300D01*
X296767Y105450D01*
X296933Y105650D01*
G01X297967Y105200D02*
Y108200D01*
G01X299233D02*
X297967Y106350D01*
G01X299433Y105200D02*
X298533Y107200D01*
G01X300567Y108200D02*
Y106050D01*
X300700Y105600D01*
X300967Y105300D01*
X301300Y105200D01*
X301633Y105300D01*
X301900Y105600D01*
X302033Y106050D01*
Y108200D01*
G01X303233Y105200D02*
Y108200D01*
X304033D01*
X304300Y108050D01*
X304500Y107700D01*
X304567Y107300D01*
X304500Y106900D01*
X304333Y106600D01*
X304033Y106450D01*
X303233D01*
G01X309100Y108200D02*
Y105200D01*
G01X308333Y108200D02*
X309867D01*
G01X310867Y105200D02*
X311700Y108200D01*
X312533Y105200D01*
G01X312233Y106250D02*
X311167D01*
G01X314567Y106800D02*
X314700Y106950D01*
X314800Y107200D01*
X314867Y107550D01*
X314800Y107850D01*
X314667Y108050D01*
X314433Y108200D01*
X313533D01*
Y105200D01*
X314633D01*
X314867Y105400D01*
X315000Y105700D01*
X315067Y106050D01*
X315000Y106400D01*
X314800Y106700D01*
X314567Y106800D01*
X313533D01*
G01X316233Y108200D02*
Y105200D01*
X317567D01*
G01X320167D02*
X318833D01*
Y108200D01*
X320167D01*
G01X319633Y106750D02*
X318833D01*
G01X312467Y67400D02*
X313300Y70400D01*
X314133Y67400D01*
G01X313833Y68450D02*
X312767D01*
G01X315500Y70400D02*
X316300D01*
G01X315900D02*
Y67400D01*
G01X315500D02*
X316300D01*
G01X317833D02*
Y70400D01*
X318667D01*
X318933Y70250D01*
X319100Y70050D01*
X319167Y69650D01*
X319100Y69250D01*
X318900Y69000D01*
X318667Y68850D01*
X317833D01*
G01X318667D02*
X319167Y67400D01*
G01X306233Y75550D02*
X306033Y75700D01*
X305800Y75800D01*
X305533D01*
X305233Y75650D01*
X305000Y75400D01*
X304833Y75100D01*
X304700Y74600D01*
X304667Y74150D01*
X304733Y73700D01*
X304833Y73400D01*
X305033Y73100D01*
X305267Y72900D01*
X305500Y72800D01*
X305733D01*
X305967Y72900D01*
X306167Y73050D01*
X306333Y73250D01*
G01X308100Y72800D02*
X307833Y72850D01*
X307600Y73050D01*
X307400Y73350D01*
X307267Y73700D01*
X307200Y74100D01*
Y74500D01*
X307267Y74900D01*
X307400Y75250D01*
X307600Y75550D01*
X307833Y75750D01*
X308100Y75800D01*
X308367Y75750D01*
X308600Y75550D01*
X308800Y75250D01*
X308933Y74900D01*
X309000Y74500D01*
Y74100D01*
X308933Y73700D01*
X308800Y73350D01*
X308600Y73050D01*
X308367Y72850D01*
X308100Y72800D01*
G01X310033D02*
Y75800D01*
X310833D01*
X311100Y75650D01*
X311300Y75300D01*
X311367Y74900D01*
X311300Y74500D01*
X311133Y74200D01*
X310833Y74050D01*
X310033D01*
G01X312633Y72800D02*
Y75800D01*
X313433D01*
X313700Y75650D01*
X313900Y75300D01*
X313967Y74900D01*
X313900Y74500D01*
X313733Y74200D01*
X313433Y74050D01*
X312633D01*
G01X316567Y72800D02*
X315233D01*
Y75800D01*
X316567D01*
G01X316033Y74350D02*
X315233D01*
G01X317833Y72800D02*
Y75800D01*
X318667D01*
X318933Y75650D01*
X319100Y75450D01*
X319167Y75050D01*
X319100Y74650D01*
X318900Y74400D01*
X318667Y74250D01*
X317833D01*
G01X318667D02*
X319167Y72800D01*
G01X310067Y78200D02*
Y81200D01*
X311333D01*
G01X310867Y79750D02*
X310067D01*
G01X312633Y78200D02*
Y81200D01*
X313467D01*
X313733Y81050D01*
X313900Y80850D01*
X313967Y80450D01*
X313900Y80050D01*
X313700Y79800D01*
X313467Y79650D01*
X312633D01*
G01X313467D02*
X313967Y78200D01*
G01X315467Y79200D02*
X316333D01*
G01X318900Y78200D02*
Y81200D01*
X317667Y79050D01*
X319333D01*
G01X306233Y86350D02*
X306033Y86500D01*
X305800Y86600D01*
X305533D01*
X305233Y86450D01*
X305000Y86200D01*
X304833Y85900D01*
X304700Y85400D01*
X304667Y84950D01*
X304733Y84500D01*
X304833Y84200D01*
X305033Y83900D01*
X305267Y83700D01*
X305500Y83600D01*
X305733D01*
X305967Y83700D01*
X306167Y83850D01*
X306333Y84050D01*
G01X308100Y83600D02*
X307833Y83650D01*
X307600Y83850D01*
X307400Y84150D01*
X307267Y84500D01*
X307200Y84900D01*
Y85300D01*
X307267Y85700D01*
X307400Y86050D01*
X307600Y86350D01*
X307833Y86550D01*
X308100Y86600D01*
X308367Y86550D01*
X308600Y86350D01*
X308800Y86050D01*
X308933Y85700D01*
X309000Y85300D01*
Y84900D01*
X308933Y84500D01*
X308800Y84150D01*
X308600Y83850D01*
X308367Y83650D01*
X308100Y83600D01*
G01X310033D02*
Y86600D01*
X310833D01*
X311100Y86450D01*
X311300Y86100D01*
X311367Y85700D01*
X311300Y85300D01*
X311133Y85000D01*
X310833Y84850D01*
X310033D01*
G01X312633Y83600D02*
Y86600D01*
X313433D01*
X313700Y86450D01*
X313900Y86100D01*
X313967Y85700D01*
X313900Y85300D01*
X313733Y85000D01*
X313433Y84850D01*
X312633D01*
G01X316567Y83600D02*
X315233D01*
Y86600D01*
X316567D01*
G01X316033Y85150D02*
X315233D01*
G01X317833Y83600D02*
Y86600D01*
X318667D01*
X318933Y86450D01*
X319100Y86250D01*
X319167Y85850D01*
X319100Y85450D01*
X318900Y85200D01*
X318667Y85050D01*
X317833D01*
G01X318667D02*
X319167Y83600D01*
G01X312467Y89000D02*
X313300Y92000D01*
X314133Y89000D01*
G01X313833Y90050D02*
X312767D01*
G01X315500Y92000D02*
X316300D01*
G01X315900D02*
Y89000D01*
G01X315500D02*
X316300D01*
G01X317833D02*
Y92000D01*
X318667D01*
X318933Y91850D01*
X319100Y91650D01*
X319167Y91250D01*
X319100Y90850D01*
X318900Y90600D01*
X318667Y90450D01*
X317833D01*
G01X318667D02*
X319167Y89000D01*
G01X322700Y61000D02*
Y98800D01*
G01X299433Y94400D02*
Y97400D01*
X300300Y94900D01*
X301167Y97400D01*
Y94400D01*
G01X302067D02*
X302900Y97400D01*
X303733Y94400D01*
G01X303433Y95450D02*
X302367D01*
G01X305500Y97400D02*
Y94400D01*
G01X304733Y97400D02*
X306267D01*
G01X308767Y94400D02*
X307433D01*
Y97400D01*
X308767D01*
G01X308233Y95950D02*
X307433D01*
G01X310033Y94400D02*
Y97400D01*
X310867D01*
X311133Y97250D01*
X311300Y97050D01*
X311367Y96650D01*
X311300Y96250D01*
X311100Y96000D01*
X310867Y95850D01*
X310033D01*
G01X310867D02*
X311367Y94400D01*
G01X312900Y97400D02*
X313700D01*
G01X313300D02*
Y94400D01*
G01X312900D02*
X313700D01*
G01X315067D02*
X315900Y97400D01*
X316733Y94400D01*
G01X316433Y95450D02*
X315367D01*
G01X317833Y97400D02*
Y94400D01*
X319167D01*
G01X326300Y97400D02*
Y94400D01*
G01X325533Y97400D02*
X327067D01*
G01X328200Y94400D02*
Y97400D01*
G01X329600D02*
Y94400D01*
G01Y95900D02*
X328200D01*
G01X331100Y97400D02*
X331900D01*
G01X331500D02*
Y94400D01*
G01X331100D02*
X331900D01*
G01X334833Y97150D02*
X334633Y97300D01*
X334400Y97400D01*
X334133D01*
X333833Y97250D01*
X333600Y97000D01*
X333433Y96700D01*
X333300Y96200D01*
X333267Y95750D01*
X333333Y95300D01*
X333433Y95000D01*
X333633Y94700D01*
X333867Y94500D01*
X334100Y94400D01*
X334333D01*
X334567Y94500D01*
X334767Y94650D01*
X334933Y94850D01*
G01X335967Y94400D02*
Y97400D01*
G01X337233D02*
X335967Y95550D01*
G01X337433Y94400D02*
X336533Y96400D01*
G01X338533Y94400D02*
Y97400D01*
X340067Y94400D01*
Y97400D01*
G01X342567Y94400D02*
X341233D01*
Y97400D01*
X342567D01*
G01X342033Y95950D02*
X341233D01*
G01X343800Y94800D02*
X344067Y94550D01*
X344367Y94400D01*
X344633D01*
X344900Y94550D01*
X345100Y94800D01*
X345200Y95150D01*
X345133Y95500D01*
X344967Y95800D01*
X344667Y96000D01*
X344267Y96100D01*
X344033Y96300D01*
X343933Y96650D01*
X344000Y97000D01*
X344167Y97250D01*
X344400Y97400D01*
X344633D01*
X344867Y97300D01*
X345067Y97050D01*
G01X346400Y94800D02*
X346667Y94550D01*
X346967Y94400D01*
X347233D01*
X347500Y94550D01*
X347700Y94800D01*
X347800Y95150D01*
X347733Y95500D01*
X347567Y95800D01*
X347267Y96000D01*
X346867Y96100D01*
X346633Y96300D01*
X346533Y96650D01*
X346600Y97000D01*
X346767Y97250D01*
X347000Y97400D01*
X347233D01*
X347467Y97300D01*
X347667Y97050D01*
G01X338667Y63250D02*
X338900Y63600D01*
X339100Y63800D01*
X339367Y63900D01*
X339600Y63800D01*
X339767Y63600D01*
X339900Y63300D01*
X339933Y62950D01*
X339900Y62650D01*
X339767Y62350D01*
X339567Y62100D01*
X339333Y62000D01*
X339067Y62100D01*
X338833Y62400D01*
X338700Y62850D01*
X338667Y63350D01*
X338733Y64000D01*
X338833Y64350D01*
X339000Y64700D01*
X339233Y64950D01*
X339467Y65000D01*
X339700Y64900D01*
X339867Y64650D01*
G01X342300Y62000D02*
Y65000D01*
X341067Y62850D01*
X342733D01*
G01X344500Y61900D02*
X344433Y61950D01*
Y62050D01*
X344500Y62100D01*
X344567Y62050D01*
Y61950D01*
X344500Y61900D01*
G01X347500Y62000D02*
Y65000D01*
X346267Y62850D01*
X347933D01*
G01X347100Y70400D02*
X346833Y70300D01*
X346633Y70050D01*
X346500Y69750D01*
X346400Y69350D01*
X346367Y68900D01*
X346400Y68450D01*
X346500Y68050D01*
X346633Y67750D01*
X346833Y67500D01*
X347100Y67400D01*
X347367Y67500D01*
X347567Y67750D01*
X347700Y68050D01*
X347800Y68450D01*
X347833Y68900D01*
X347800Y69350D01*
X347700Y69750D01*
X347567Y70050D01*
X347367Y70300D01*
X347100Y70400D01*
G01X341900Y75800D02*
X341633Y75700D01*
X341433Y75450D01*
X341300Y75150D01*
X341200Y74750D01*
X341167Y74300D01*
X341200Y73850D01*
X341300Y73450D01*
X341433Y73150D01*
X341633Y72900D01*
X341900Y72800D01*
X342167Y72900D01*
X342367Y73150D01*
X342500Y73450D01*
X342600Y73850D01*
X342633Y74300D01*
X342600Y74750D01*
X342500Y75150D01*
X342367Y75450D01*
X342167Y75700D01*
X341900Y75800D01*
G01X344500Y72700D02*
X344433Y72750D01*
Y72850D01*
X344500Y72900D01*
X344567Y72850D01*
Y72750D01*
X344500Y72700D01*
G01X347033Y72800D02*
X347100Y73450D01*
X347200Y74000D01*
X347333Y74500D01*
X347500Y75050D01*
X347767Y75800D01*
X346433D01*
G01X343867Y79450D02*
X344100Y79800D01*
X344300Y80000D01*
X344567Y80100D01*
X344800Y80000D01*
X344967Y79800D01*
X345100Y79500D01*
X345133Y79150D01*
X345100Y78850D01*
X344967Y78550D01*
X344767Y78300D01*
X344533Y78200D01*
X344267Y78300D01*
X344033Y78600D01*
X343900Y79050D01*
X343867Y79550D01*
X343933Y80200D01*
X344033Y80550D01*
X344200Y80900D01*
X344433Y81150D01*
X344667Y81200D01*
X344900Y81100D01*
X345067Y80850D01*
G01X346367Y78800D02*
X346567Y78450D01*
X346833Y78250D01*
X347133Y78200D01*
X347400Y78250D01*
X347667Y78500D01*
X347833Y78800D01*
X347867Y79100D01*
X347800Y79450D01*
X347567Y79700D01*
X347333Y79800D01*
X347033D01*
G01X347333D02*
X347533Y79950D01*
X347700Y80200D01*
X347767Y80500D01*
X347700Y80800D01*
X347533Y81050D01*
X347233Y81200D01*
X346933Y81150D01*
X346633Y80950D01*
G01X341900Y86600D02*
X341633Y86500D01*
X341433Y86250D01*
X341300Y85950D01*
X341200Y85550D01*
X341167Y85100D01*
X341200Y84650D01*
X341300Y84250D01*
X341433Y83950D01*
X341633Y83700D01*
X341900Y83600D01*
X342167Y83700D01*
X342367Y83950D01*
X342500Y84250D01*
X342600Y84650D01*
X342633Y85100D01*
X342600Y85550D01*
X342500Y85950D01*
X342367Y86250D01*
X342167Y86500D01*
X341900Y86600D01*
G01X344500Y83500D02*
X344433Y83550D01*
Y83650D01*
X344500Y83700D01*
X344567Y83650D01*
Y83550D01*
X344500Y83500D01*
G01X347033Y83600D02*
X347100Y84250D01*
X347200Y84800D01*
X347333Y85300D01*
X347500Y85850D01*
X347767Y86600D01*
X346433D01*
G01X347100Y92000D02*
X346833Y91900D01*
X346633Y91650D01*
X346500Y91350D01*
X346400Y90950D01*
X346367Y90500D01*
X346400Y90050D01*
X346500Y89650D01*
X346633Y89350D01*
X346833Y89100D01*
X347100Y89000D01*
X347367Y89100D01*
X347567Y89350D01*
X347700Y89650D01*
X347800Y90050D01*
X347833Y90500D01*
X347800Y90950D01*
X347700Y91350D01*
X347567Y91650D01*
X347367Y91900D01*
X347100Y92000D01*
G01X351300Y61000D02*
Y98800D01*
G01X354900Y97400D02*
Y94400D01*
G01X354133Y97400D02*
X355667D01*
G01X357500Y94400D02*
X357233Y94450D01*
X357000Y94650D01*
X356800Y94950D01*
X356667Y95300D01*
X356600Y95700D01*
Y96100D01*
X356667Y96500D01*
X356800Y96850D01*
X357000Y97150D01*
X357233Y97350D01*
X357500Y97400D01*
X357767Y97350D01*
X358000Y97150D01*
X358200Y96850D01*
X358333Y96500D01*
X358400Y96100D01*
Y95700D01*
X358333Y95300D01*
X358200Y94950D01*
X358000Y94650D01*
X357767Y94450D01*
X357500Y94400D01*
G01X359433Y97400D02*
Y94400D01*
X360767D01*
G01X363367D02*
X362033D01*
Y97400D01*
X363367D01*
G01X362833Y95950D02*
X362033D01*
G01X364633Y94400D02*
Y97400D01*
X365467D01*
X365733Y97250D01*
X365900Y97050D01*
X365967Y96650D01*
X365900Y96250D01*
X365700Y96000D01*
X365467Y95850D01*
X364633D01*
G01X365467D02*
X365967Y94400D01*
G01X367067D02*
X367900Y97400D01*
X368733Y94400D01*
G01X368433Y95450D02*
X367367D01*
G01X369733Y94400D02*
Y97400D01*
X371267Y94400D01*
Y97400D01*
G01X373833Y97150D02*
X373633Y97300D01*
X373400Y97400D01*
X373133D01*
X372833Y97250D01*
X372600Y97000D01*
X372433Y96700D01*
X372300Y96200D01*
X372267Y95750D01*
X372333Y95300D01*
X372433Y95000D01*
X372633Y94700D01*
X372867Y94500D01*
X373100Y94400D01*
X373333D01*
X373567Y94500D01*
X373767Y94650D01*
X373933Y94850D01*
G01X376367Y94400D02*
X375033D01*
Y97400D01*
X376367D01*
G01X375833Y95950D02*
X375033D01*
G01X364933Y68400D02*
X365733D01*
G01X365300Y69050D02*
Y67750D01*
G01X367900Y70400D02*
X367633Y70300D01*
X367433Y70050D01*
X367300Y69750D01*
X367200Y69350D01*
X367167Y68900D01*
X367200Y68450D01*
X367300Y68050D01*
X367433Y67750D01*
X367633Y67500D01*
X367900Y67400D01*
X368167Y67500D01*
X368367Y67750D01*
X368500Y68050D01*
X368600Y68450D01*
X368633Y68900D01*
X368600Y69350D01*
X368500Y69750D01*
X368367Y70050D01*
X368167Y70300D01*
X367900Y70400D01*
G01X369900Y67300D02*
X371100Y70400D01*
G01X372667Y68400D02*
X373533D01*
G01X375700Y70400D02*
X375433Y70300D01*
X375233Y70050D01*
X375100Y69750D01*
X375000Y69350D01*
X374967Y68900D01*
X375000Y68450D01*
X375100Y68050D01*
X375233Y67750D01*
X375433Y67500D01*
X375700Y67400D01*
X375967Y67500D01*
X376167Y67750D01*
X376300Y68050D01*
X376400Y68450D01*
X376433Y68900D01*
X376400Y69350D01*
X376300Y69750D01*
X376167Y70050D01*
X375967Y70300D01*
X375700Y70400D01*
G01X364933Y73800D02*
X365733D01*
G01X365300Y74450D02*
Y73150D01*
G01X367900Y75800D02*
X367633Y75700D01*
X367433Y75450D01*
X367300Y75150D01*
X367200Y74750D01*
X367167Y74300D01*
X367200Y73850D01*
X367300Y73450D01*
X367433Y73150D01*
X367633Y72900D01*
X367900Y72800D01*
X368167Y72900D01*
X368367Y73150D01*
X368500Y73450D01*
X368600Y73850D01*
X368633Y74300D01*
X368600Y74750D01*
X368500Y75150D01*
X368367Y75450D01*
X368167Y75700D01*
X367900Y75800D01*
G01X369900Y72700D02*
X371100Y75800D01*
G01X372667Y73800D02*
X373533D01*
G01X375700Y75800D02*
X375433Y75700D01*
X375233Y75450D01*
X375100Y75150D01*
X375000Y74750D01*
X374967Y74300D01*
X375000Y73850D01*
X375100Y73450D01*
X375233Y73150D01*
X375433Y72900D01*
X375700Y72800D01*
X375967Y72900D01*
X376167Y73150D01*
X376300Y73450D01*
X376400Y73850D01*
X376433Y74300D01*
X376400Y74750D01*
X376300Y75150D01*
X376167Y75450D01*
X375967Y75700D01*
X375700Y75800D01*
G01X364933Y79200D02*
X365733D01*
G01X365300Y79850D02*
Y78550D01*
G01X367900Y81200D02*
X367633Y81100D01*
X367433Y80850D01*
X367300Y80550D01*
X367200Y80150D01*
X367167Y79700D01*
X367200Y79250D01*
X367300Y78850D01*
X367433Y78550D01*
X367633Y78300D01*
X367900Y78200D01*
X368167Y78300D01*
X368367Y78550D01*
X368500Y78850D01*
X368600Y79250D01*
X368633Y79700D01*
X368600Y80150D01*
X368500Y80550D01*
X368367Y80850D01*
X368167Y81100D01*
X367900Y81200D01*
G01X369900Y78100D02*
X371100Y81200D01*
G01X372667Y79200D02*
X373533D01*
G01X375700Y81200D02*
X375433Y81100D01*
X375233Y80850D01*
X375100Y80550D01*
X375000Y80150D01*
X374967Y79700D01*
X375000Y79250D01*
X375100Y78850D01*
X375233Y78550D01*
X375433Y78300D01*
X375700Y78200D01*
X375967Y78300D01*
X376167Y78550D01*
X376300Y78850D01*
X376400Y79250D01*
X376433Y79700D01*
X376400Y80150D01*
X376300Y80550D01*
X376167Y80850D01*
X375967Y81100D01*
X375700Y81200D01*
G01X364933Y84600D02*
X365733D01*
G01X365300Y85250D02*
Y83950D01*
G01X367900Y86600D02*
X367633Y86500D01*
X367433Y86250D01*
X367300Y85950D01*
X367200Y85550D01*
X367167Y85100D01*
X367200Y84650D01*
X367300Y84250D01*
X367433Y83950D01*
X367633Y83700D01*
X367900Y83600D01*
X368167Y83700D01*
X368367Y83950D01*
X368500Y84250D01*
X368600Y84650D01*
X368633Y85100D01*
X368600Y85550D01*
X368500Y85950D01*
X368367Y86250D01*
X368167Y86500D01*
X367900Y86600D01*
G01X369900Y83500D02*
X371100Y86600D01*
G01X372667Y84600D02*
X373533D01*
G01X375700Y86600D02*
X375433Y86500D01*
X375233Y86250D01*
X375100Y85950D01*
X375000Y85550D01*
X374967Y85100D01*
X375000Y84650D01*
X375100Y84250D01*
X375233Y83950D01*
X375433Y83700D01*
X375700Y83600D01*
X375967Y83700D01*
X376167Y83950D01*
X376300Y84250D01*
X376400Y84650D01*
X376433Y85100D01*
X376400Y85550D01*
X376300Y85950D01*
X376167Y86250D01*
X375967Y86500D01*
X375700Y86600D01*
G01X364933Y90000D02*
X365733D01*
G01X365300Y90650D02*
Y89350D01*
G01X367900Y92000D02*
X367633Y91900D01*
X367433Y91650D01*
X367300Y91350D01*
X367200Y90950D01*
X367167Y90500D01*
X367200Y90050D01*
X367300Y89650D01*
X367433Y89350D01*
X367633Y89100D01*
X367900Y89000D01*
X368167Y89100D01*
X368367Y89350D01*
X368500Y89650D01*
X368600Y90050D01*
X368633Y90500D01*
X368600Y90950D01*
X368500Y91350D01*
X368367Y91650D01*
X368167Y91900D01*
X367900Y92000D01*
G01X369900Y88900D02*
X371100Y92000D01*
G01X372667Y90000D02*
X373533D01*
G01X375700Y92000D02*
X375433Y91900D01*
X375233Y91650D01*
X375100Y91350D01*
X375000Y90950D01*
X374967Y90500D01*
X375000Y90050D01*
X375100Y89650D01*
X375233Y89350D01*
X375433Y89100D01*
X375700Y89000D01*
X375967Y89100D01*
X376167Y89350D01*
X376300Y89650D01*
X376400Y90050D01*
X376433Y90500D01*
X376400Y90950D01*
X376300Y91350D01*
X376167Y91650D01*
X375967Y91900D01*
X375700Y92000D01*
G01X379300Y61000D02*
Y109600D01*
M02*
