G04 ================== begin FILE IDENTIFICATION RECORD ==================*
G04 Layout Name:  D:/facultate/an_3/sem_1/proiect apd_proiect cef/PCB/allegro/PCB_3.brd*
G04 Film Name:    SMTOP*
G04 File Format:  Gerber RS274X*
G04 File Origin:  Cadence Allegro 17.2-S025*
G04 Origin Date:  Tue Jan 21 13:32:51 2025*
G04 *
G04 Layer:  VIA CLASS/SOLDERMASK_TOP*
G04 Layer:  PIN/SOLDERMASK_TOP*
G04 Layer:  PACKAGE GEOMETRY/SOLDERMASK_TOP*
G04 Layer:  BOARD GEOMETRY/SOLDERMASK_TOP*
G04 *
G04 Offset:    (0.00 0.00)*
G04 Mirror:    No*
G04 Mode:      Positive*
G04 Rotation:  0*
G04 FullContactRelief:  No*
G04 UndefLineWidth:     10.00*
G04 ================== end FILE IDENTIFICATION RECORD ====================*
%FSLAX25Y25*MOIN*%
%IR0*IPPOS*OFA0.00000B0.00000*MIA0B0*SFA1.00000B1.00000*%
%ADD12R,.106X.066*%
%ADD15C,.044*%
%ADD11C,.08*%
%ADD22R,.07087X.12008*%
%ADD21R,.12008X.07087*%
%ADD16R,.05512X.05512*%
%ADD18R,.022X.025*%
%ADD20R,.025X.022*%
%ADD13R,.04528X.04724*%
%ADD19R,.08268X.05512*%
%ADD17R,.04724X.04528*%
%ADD10R,.04528X.06496*%
%ADD14R,.06496X.04528*%
%LPD*%
G75*
G54D10*
X22937Y33900D03*
X15063D03*
X31063Y73900D03*
X38937D03*
X53937Y65900D03*
X46063D03*
X53063Y141900D03*
X60937D03*
X79063D03*
X86937D03*
G54D20*
X108500Y89100D03*
Y96600D03*
X115500Y92900D03*
G54D11*
X20000Y19900D03*
X141000Y141000D03*
G54D21*
X103000Y70900D03*
G54D12*
X21000Y62400D03*
Y49400D03*
X140000Y85400D03*
Y98400D03*
G54D13*
X14000Y86357D03*
X9000Y114357D03*
Y121443D03*
X17000Y114357D03*
Y121443D03*
X25000Y114357D03*
Y121443D03*
X14000Y93443D03*
X46000Y34357D03*
Y41443D03*
X57000Y120357D03*
Y127443D03*
X80000Y31357D03*
Y38443D03*
X89000Y116357D03*
Y123443D03*
X95000Y55443D03*
Y48357D03*
X114000Y55443D03*
Y48357D03*
X105000Y55443D03*
Y48357D03*
X91500Y85957D03*
Y93043D03*
G54D22*
X122000Y122000D03*
G54D14*
X23600Y85663D03*
Y93537D03*
X46000Y15963D03*
Y23837D03*
X36000Y24963D03*
Y32837D03*
X35000Y108837D03*
Y100963D03*
X49000Y119963D03*
X37000Y124963D03*
Y132837D03*
X49000Y127837D03*
X87000Y17837D03*
Y9963D03*
X69500Y89063D03*
Y96937D03*
X99000Y29837D03*
Y21963D03*
X118000Y29837D03*
Y21963D03*
X121000Y73937D03*
Y66063D03*
X98000Y115963D03*
Y123837D03*
X103000Y139837D03*
Y131963D03*
X113000Y139837D03*
Y131963D03*
X139000Y30963D03*
Y20837D03*
Y12963D03*
X129000Y29837D03*
Y21963D03*
X139000Y54837D03*
Y46963D03*
Y38837D03*
X131000Y73837D03*
Y65963D03*
G54D15*
X31000Y80900D03*
Y91900D03*
X90000Y32900D03*
X80000Y51900D03*
X87063Y38837D03*
X87103Y101796D03*
X91500Y65400D03*
X128063Y38837D03*
G54D16*
X59945Y15900D03*
X69000D03*
X77055Y132900D03*
X68000D03*
G54D17*
X41543Y51900D03*
X34457D03*
X69543Y65900D03*
X62457D03*
X138543Y122000D03*
X131457D03*
X138543Y113000D03*
X131457D03*
X138543Y130000D03*
X131457D03*
G54D18*
X50800Y89400D03*
X43300D03*
X47000Y96400D03*
X131800Y141400D03*
X124300D03*
X128000Y148400D03*
G54D19*
X64472Y38144D03*
X72528Y110656D03*
M02*
