G04 ================== begin FILE IDENTIFICATION RECORD ==================*
G04 Layout Name:  D:/facultate/an_3/sem_1/proiect apd_proiect cef/PCB/allegro/PCB_3.brd*
G04 Film Name:    TOP*
G04 File Format:  Gerber RS274X*
G04 File Origin:  Cadence Allegro 17.2-S025*
G04 Origin Date:  Tue Jan 21 13:32:51 2025*
G04 *
G04 Layer:  ETCH/TOP*
G04 Layer:  PIN/TOP*
G04 Layer:  VIA CLASS/TOP*
G04 *
G04 Offset:    (0.00 0.00)*
G04 Mirror:    No*
G04 Mode:      Positive*
G04 Rotation:  0*
G04 FullContactRelief:  No*
G04 UndefLineWidth:     10.00*
G04 ================== end FILE IDENTIFICATION RECORD ====================*
%FSLAX25Y25*MOIN*%
%IR0*IPPOS*OFA0.00000B0.00000*MIA0B0*SFA1.00000B1.00000*%
%ADD12R,.1X.06*%
%ADD15C,.024*%
%ADD22R,.07087X.12008*%
%ADD21R,.12008X.07087*%
%ADD16R,.05118X.05118*%
%ADD11C,.03937*%
%ADD18R,.017X.02*%
%ADD20R,.02X.017*%
%ADD13R,.0374X.04331*%
%ADD17R,.04331X.0374*%
%ADD10R,.0374X.05709*%
%ADD14R,.05709X.0374*%
%ADD19R,.07874X.05118*%
%ADD23C,.016*%
%ADD24C,.018*%
%ADD25C,.0394*%
G75*
%LPD*%
G75*
G36*
G01X4001Y3901D02*
Y152900D01*
X153000D01*
Y3901D01*
X4001D01*
G37*
%LPC*%
G75*
G36*
G01X140744Y108918D02*
X136625Y104798D01*
X130912D01*
X129202Y103088D01*
Y82912D01*
X133202Y78912D01*
Y75708D01*
X133855D01*
X133856Y75707D01*
Y71967D01*
X133855Y71966D01*
X132159D01*
G02X129841I-1159J1871D01*
G01X128145D01*
X128144Y71967D01*
Y75707D01*
X128145Y75708D01*
X128798D01*
Y77088D01*
X124798Y81088D01*
Y104912D01*
X129088Y109202D01*
X134801D01*
X136342Y110742D01*
Y129955D01*
Y133595D01*
X133704Y136233D01*
X129598Y140338D01*
Y141400D01*
G02X132547Y143471I2202J0D01*
G02X133759Y142404I-747J-2071D01*
G01X140744Y135419D01*
Y130000D01*
Y108918D01*
G37*
G36*
G01X134498Y82400D02*
Y88400D01*
G02X135000Y88902I502J0D01*
G01X145000D01*
G02X145502Y88400I0J-502D01*
G01Y82400D01*
G02X145000Y81898I-502J0D01*
G01X135000D01*
G02X134498Y82400I0J502D01*
G37*
G36*
G01X125644Y20093D02*
Y23833D01*
G02X126146Y24334I501J0D01*
G01X131854D01*
G02X132356Y23833I1J-501D01*
G01Y20093D01*
G02X131854Y19592I-501J0D01*
G01X126146D01*
G02X125644Y20093I-1J501D01*
G37*
G36*
G01X135644Y11093D02*
Y14833D01*
G02X136146Y15334I501J0D01*
G01X141854D01*
G02X142356Y14833I1J-501D01*
G01Y11093D01*
G02X141854Y10592I-501J0D01*
G01X136146D01*
G02X135644Y11093I-1J501D01*
G37*
G36*
G01X102628Y46192D02*
Y50522D01*
G02X103130Y51024I502J0D01*
G01X106870D01*
G02X107372Y50522I0J-502D01*
G01Y46192D01*
G02X106870Y45690I-502J0D01*
G01X103130D01*
G02X102628Y46192I0J502D01*
G37*
G36*
G01X111628D02*
Y50522D01*
G02X112130Y51024I502J0D01*
G01X115870D01*
G02X116372Y50522I0J-502D01*
G01Y46192D01*
G02X115870Y45690I-502J0D01*
G01X112130D01*
G02X111628Y46192I0J502D01*
G37*
G36*
G01X92628D02*
Y50522D01*
G02X93130Y51024I502J0D01*
G01X96870D01*
G02X97372Y50522I0J-502D01*
G01Y46192D01*
G02X96870Y45690I-502J0D01*
G01X93130D01*
G02X92628Y46192I0J502D01*
G37*
G36*
G01X114644Y20093D02*
Y23833D01*
G02X115146Y24334I501J0D01*
G01X120854D01*
G02X121356Y23833I1J-501D01*
G01Y20093D01*
G02X120854Y19592I-501J0D01*
G01X115146D01*
G02X114644Y20093I-1J501D01*
G37*
G36*
G01X95644D02*
Y23833D01*
G02X96146Y24334I501J0D01*
G01X101854D01*
G02X102356Y23833I1J-501D01*
G01Y20093D01*
G02X101854Y19592I-501J0D01*
G01X96146D01*
G02X95644Y20093I-1J501D01*
G37*
G36*
G01X83644Y8093D02*
Y11833D01*
G02X84146Y12334I501J0D01*
G01X89854D01*
G02X90356Y11833I1J-501D01*
G01Y8093D01*
G02X89854Y7592I-501J0D01*
G01X84146D01*
G02X83644Y8093I-1J501D01*
G37*
G36*
G01X32644Y23093D02*
Y26833D01*
G02X33146Y27334I501J0D01*
G01X38854D01*
G02X39356Y26833I1J-501D01*
G01Y23093D01*
G02X38854Y22592I-501J0D01*
G01X33146D01*
G02X32644Y23093I-1J501D01*
G37*
G36*
G01X22628Y112192D02*
Y116522D01*
G02X23130Y117024I502J0D01*
G01X26870D01*
G02X27372Y116522I0J-502D01*
G01Y112192D01*
G02X26870Y111690I-502J0D01*
G01X23130D01*
G02X22628Y112192I0J502D01*
G37*
G36*
G01X14628D02*
Y116522D01*
G02X15130Y117024I502J0D01*
G01X18870D01*
G02X19372Y116522I0J-502D01*
G01Y112192D01*
G02X18870Y111690I-502J0D01*
G01X15130D01*
G02X14628Y112192I0J502D01*
G37*
G36*
G01X6628D02*
Y116522D01*
G02X7130Y117024I502J0D01*
G01X10870D01*
G02X11372Y116522I0J-502D01*
G01Y112192D01*
G02X10870Y111690I-502J0D01*
G01X7130D01*
G02X6628Y112192I0J502D01*
G37*
G36*
G01X15498Y46400D02*
Y52400D01*
G02X16000Y52902I502J0D01*
G01X26000D01*
G02X26502Y52400I0J-502D01*
G01Y46400D01*
G02X26000Y45898I-502J0D01*
G01X16000D01*
G02X15498Y46400I0J502D01*
G37*
G36*
G01X12692Y31046D02*
Y36754D01*
G02X13193Y37256I501J1D01*
G01X16933D01*
G02X17434Y36754I0J-501D01*
G01Y31046D01*
G02X16933Y30544I-501J-1D01*
G01X13193D01*
G02X12692Y31046I0J501D01*
G37*
G36*
G01X54934Y144754D02*
Y143240D01*
G02X55364Y141900I-1871J-1339D01*
G01Y139962D01*
X54934Y139532D01*
Y139046D01*
G02X54933Y139044I-1J-1D01*
G01X54447D01*
X51302Y135899D01*
Y129708D01*
X51854D01*
G02X51856Y129707I1J-1D01*
G01Y125967D01*
G02X51854Y125966I-1J0D01*
G01X50340D01*
G02X47660I-1340J1871D01*
G01X46146D01*
G02X46144Y125967I-1J1D01*
G01Y129707D01*
G02X46146Y129708I1J0D01*
G01X46698D01*
Y137805D01*
X50760Y141867D01*
X50762Y141948D01*
G02X51192Y143240I2301J-48D01*
G01Y144754D01*
G02X51193Y144756I1J1D01*
G01X54933D01*
G02X54934Y144754I0J-1D01*
G37*
G36*
G01X62808D02*
Y143240D01*
G02X63238Y141900I-1871J-1339D01*
G01Y136916D01*
X64953Y135202D01*
X65440D01*
Y135459D01*
X65441Y135460D01*
X70559D01*
X70560Y135459D01*
Y130341D01*
X70559Y130340D01*
X65441D01*
X65440Y130341D01*
Y130598D01*
X59844D01*
X59302Y130056D01*
Y127443D01*
G02X58906Y126153I-2302J1D01*
G01X58872Y126102D01*
Y125278D01*
G02X58870Y125276I-2J0D01*
G01X57776D01*
X57745Y125265D01*
G02X56255I-745J2178D01*
G01X56224Y125276D01*
X55130D01*
G02X55128Y125278I0J2D01*
G01Y126102D01*
X55094Y126153D01*
G02X54698Y127443I1906J1291D01*
G01Y131962D01*
X57938Y135202D01*
X58636D01*
Y141900D01*
G02X59066Y143240I2301J1D01*
G01Y144754D01*
G02X59067Y144756I1J1D01*
G01X62807D01*
G02X62808Y144754I0J-1D01*
G37*
G36*
G01X90870Y121276D02*
X89776D01*
X89745Y121265D01*
G02X88255I-745J2178D01*
G01X88224Y121276D01*
X87130D01*
G02X87128Y121278I0J2D01*
G01Y122102D01*
X87094Y122153D01*
G02X86698Y123443I1906J1291D01*
G01Y128947D01*
X85047Y130598D01*
X79616D01*
Y130341D01*
G02X79614Y130340I-2J1D01*
G01X74496D01*
G02X74494Y130341I-1J1D01*
G01Y135459D01*
G02X74496Y135460I2J-1D01*
G01X76361D01*
X76762Y135861D01*
Y141900D01*
G02X77192Y143240I2301J1D01*
G01Y144754D01*
G02X77193Y144756I1J1D01*
G01X80933D01*
G02X80934Y144754I0J-1D01*
G01Y143240D01*
G02X81364Y141900I-1871J-1339D01*
G01Y135202D01*
X86953D01*
X91302Y130853D01*
Y123443D01*
G02X90906Y122153I-2302J1D01*
G01X90872Y122102D01*
Y121278D01*
G02X90870Y121276I-2J0D01*
G37*
G36*
G01X32912Y122798D02*
X29355Y119242D01*
X25672D01*
X25644Y119234D01*
G02X25000Y119142I-644J2208D01*
G01X9000D01*
G02X8255Y119265I-3J2301D01*
G01X8224Y119276D01*
X7130D01*
G02X7128Y119278I0J2D01*
G01Y120102D01*
X7094Y120153D01*
G02Y122733I1906J1290D01*
G01X7128Y122784D01*
Y123608D01*
G02X7130Y123610I2J0D01*
G01X8224D01*
X8255Y123621D01*
G02X9000Y123744I742J-2178D01*
G01X23624D01*
G02X26501Y123644I1376J-1844D01*
G01X27531D01*
X31088Y127202D01*
X36465D01*
X36487Y127207D01*
G02X37513I513J-2244D01*
G01X37535Y127202D01*
X37875D01*
X38082Y126994D01*
G02X38340Y126834I-1081J-2032D01*
G01X39854D01*
G02X39856Y126833I1J-1D01*
G01Y123093D01*
G02X39854Y123092I-1J0D01*
G01X39302D01*
Y116947D01*
X37302Y114947D01*
Y110708D01*
X37854D01*
G02X37856Y110707I1J-1D01*
G01Y106967D01*
G02X37854Y106966I-1J0D01*
G01X36340D01*
G02X33660I-1340J1871D01*
G01X32146D01*
G02X32144Y106967I-1J1D01*
G01Y110707D01*
G02X32146Y110708I1J0D01*
G01X32698D01*
Y116853D01*
X34698Y118853D01*
Y122798D01*
X32912D01*
G37*
G36*
G01X100302Y111740D02*
X89589Y101028D01*
X89575Y100982D01*
G02X86289Y104268I-2472J814D01*
G01X86335Y104282D01*
X95698Y113646D01*
Y114092D01*
X95146D01*
G02X95144Y114093I-1J1D01*
G01Y117833D01*
G02X95146Y117834I1J0D01*
G01X96660D01*
G02X99340I1340J-1871D01*
G01X100854D01*
G02X100856Y117833I1J-1D01*
G01Y114093D01*
G02X100854Y114092I-1J0D01*
G01X100302D01*
Y111740D01*
G37*
G36*
G01X72354Y95066D02*
X70659D01*
G02X68341I-1159J1871D01*
G01X66646D01*
G02X66644Y95067I-1J1D01*
G01Y98807D01*
G02X66646Y98808I1J0D01*
G01X67298D01*
Y102912D01*
X70326Y105940D01*
Y108096D01*
X68591D01*
X68590Y108097D01*
Y108354D01*
X62182D01*
X54698Y115838D01*
Y120357D01*
G02X55094Y121647I2302J-1D01*
G01X55128Y121698D01*
Y122522D01*
G02X55130Y122524I2J0D01*
G01X56224D01*
X56255Y122535D01*
G02X57745I745J-2178D01*
G01X57776Y122524D01*
X58870D01*
G02X58871Y122522I0J-1D01*
G01Y121698D01*
X58906Y121647D01*
G02X59302Y120357I-1906J-1291D01*
G01Y117744D01*
X64088Y112958D01*
X68590D01*
Y113215D01*
X68591Y113216D01*
X76465D01*
X76466Y113215D01*
Y112958D01*
X82642D01*
X86842Y117158D01*
X86857Y117197D01*
G02X87094Y117647I2142J-841D01*
G01X87128Y117698D01*
Y118522D01*
G02X87130Y118524I2J0D01*
G01X88224D01*
X88255Y118535D01*
G02X89745I745J-2178D01*
G01X89776Y118524D01*
X90870D01*
G02X90872Y118522I0J-2D01*
G01Y117698D01*
X90906Y117647D01*
G02X91302Y116357I-1906J-1291D01*
G01Y115108D01*
X90872Y114678D01*
Y114192D01*
G02X90870Y114190I-2J0D01*
G01X90384D01*
X84548Y108354D01*
X76466D01*
Y108097D01*
X76465Y108096D01*
X74730D01*
Y104116D01*
X71702Y101088D01*
Y98808D01*
X72354D01*
G02X72356Y98807I1J-1D01*
G01Y95067D01*
G02X72354Y95066I-1J0D01*
G37*
G36*
G01X20073Y96698D02*
X16072Y92697D01*
X16057Y92658D01*
G02X15899Y92329I-2057J785D01*
G01X15872Y92282D01*
Y91278D01*
G02X15870Y91276I-2J0D01*
G01X14389D01*
X14372Y91273D01*
G02X13628I-372J2170D01*
G01X13611Y91276D01*
X12130D01*
G02X12128Y91278I0J2D01*
G01Y92282D01*
X12101Y92329D01*
G02X11798Y93443I1899J1115D01*
G01Y94651D01*
X12128Y94981D01*
Y95608D01*
G02X12130Y95610I2J0D01*
G01X12758D01*
X18249Y101102D01*
X22912D01*
X25802Y98212D01*
Y95408D01*
X26454D01*
G02X26456Y95407I1J-1D01*
G01Y91667D01*
G02X26454Y91666I-1J0D01*
G01X24759D01*
G02X22441I-1159J1871D01*
G01X20746D01*
G02X20744Y91667I-1J1D01*
G01Y95407D01*
G02X20746Y95408I1J0D01*
G01X21398D01*
Y96388D01*
X21088Y96698D01*
X20073D01*
G37*
G36*
G01X117802Y125353D02*
Y92900D01*
G02X113198I-2302J0D01*
G01Y123447D01*
X110698Y125947D01*
Y130092D01*
X110146D01*
G02X110144Y130093I-1J1D01*
G01Y133833D01*
G02X110146Y133834I1J0D01*
G01X111660D01*
G02X113513Y134207I1341J-1871D01*
G01X113535Y134202D01*
X117047D01*
X121998Y139153D01*
Y141400D01*
G02X126602I2302J0D01*
G01Y137247D01*
X118953Y129598D01*
X115302D01*
Y127853D01*
X117802Y125353D01*
G37*
G36*
G01X30186Y94372D02*
X30232Y94386D01*
X32698Y96853D01*
Y99092D01*
X32146D01*
G02X32144Y99093I-1J1D01*
G01Y102833D01*
G02X32146Y102834I1J0D01*
G01X33660D01*
G02X36340I1340J-1871D01*
G01X37854D01*
G02X37856Y102833I1J-1D01*
G01Y99093D01*
G02X37854Y99092I-1J0D01*
G01X37302D01*
Y94947D01*
X33486Y91132D01*
X33472Y91086D01*
G02X30186Y94372I-2472J814D01*
G37*
G36*
G01X123854Y72066D02*
X122159D01*
G02X119841I-1159J1871D01*
G01X118146D01*
G02X118144Y72067I-1J1D01*
G01Y75807D01*
G02X118146Y75808I1J0D01*
G01X118798D01*
Y108912D01*
X125088Y115202D01*
X129256D01*
Y119798D01*
X125545D01*
Y115996D01*
G02X125544Y115994I-3J0D01*
G01X118456D01*
G02X118455Y115996I2J2D01*
G01Y128004D01*
G02X118456Y128006I3J0D01*
G01X125544D01*
G02X125545Y128004I-2J-2D01*
G01Y124202D01*
X129256D01*
Y130000D01*
G02X129287Y130372I2201J4D01*
G01X129290Y130389D01*
Y131870D01*
G02X129292Y131872I2J0D01*
G01X130296D01*
X130343Y131899D01*
G02X132571I1114J-1899D01*
G01X132618Y131872D01*
X133622D01*
G02X133624Y131870I0J-2D01*
G01Y130389D01*
X133627Y130372D01*
G02X133658Y130000I-2170J-368D01*
G01Y113000D01*
G02X133627Y112628I-2201J-4D01*
G01X133624Y112611D01*
Y111130D01*
G02X133622Y111128I-2J0D01*
G01X132618D01*
X132571Y111101D01*
G02X131457Y110798I-1115J1899D01*
G01X126912D01*
X123202Y107088D01*
Y75808D01*
X123854D01*
G02X123856Y75807I1J-1D01*
G01Y72067D01*
G02X123854Y72066I-1J0D01*
G37*
G36*
G01X55808Y63046D02*
G02X55807Y63044I-1J-1D01*
G01X52067D01*
G02X52066Y63046I0J1D01*
G01Y64560D01*
G02Y67240I1871J1340D01*
G01Y68754D01*
G02X52067Y68756I1J1D01*
G01X55807D01*
G02X55808Y68754I0J-1D01*
G01Y68202D01*
X62457D01*
G02X63747Y67806I-1J-2302D01*
G01X63798Y67772D01*
X64622D01*
G02X64624Y67770I0J-2D01*
G01Y66676D01*
X64635Y66645D01*
G02Y65155I-2178J-745D01*
G01X64624Y65124D01*
Y64030D01*
G02X64622Y64028I-2J0D01*
G01X63798D01*
X63747Y63994D01*
G02X62457Y63598I-1291J1906D01*
G01X55808D01*
Y63046D01*
G37*
G36*
G01X140340Y52966D02*
G02X139000Y52536I-1339J1871D01*
G01X137062D01*
X136632Y52966D01*
X136146D01*
G02X136144Y52967I-1J1D01*
G01Y53453D01*
X128698Y60899D01*
Y64092D01*
X128146D01*
G02X128144Y64093I-1J1D01*
G01Y67833D01*
G02X128146Y67834I1J0D01*
G01X129660D01*
G02X132340I1340J-1871D01*
G01X133854D01*
G02X133856Y67833I1J-1D01*
G01Y64093D01*
G02X133854Y64092I-1J0D01*
G01X133302D01*
Y62805D01*
X138967Y57140D01*
X139048Y57138D01*
G02X140340Y56708I-48J-2301D01*
G01X141854D01*
G02X141856Y56707I1J-1D01*
G01Y52967D01*
G02X141854Y52966I-1J0D01*
G01X140340D01*
G37*
G36*
G01X139000Y36536D02*
X129277D01*
G02Y41138I-1214J2301D01*
G01X136698D01*
Y45092D01*
X136146D01*
G02X136144Y45093I-1J1D01*
G01Y48833D01*
G02X136146Y48834I1J0D01*
G01X137660D01*
G02X140340I1340J-1871D01*
G01X141854D01*
G02X141856Y48833I1J-1D01*
G01Y45093D01*
G02X141854Y45092I-1J0D01*
G01X141302D01*
Y40708D01*
X141854D01*
G02X141856Y40707I1J-1D01*
G01Y36967D01*
G02X141854Y36966I-1J0D01*
G01X140340D01*
G02X139000Y36536I-1339J1871D01*
G37*
G36*
G01X68410Y35585D02*
X68409Y35584D01*
X60535D01*
X60534Y35585D01*
Y40703D01*
X60535Y40704D01*
X62270D01*
Y49384D01*
X72798Y59912D01*
Y75588D01*
X67298Y81088D01*
Y87192D01*
X66646D01*
G02X66644Y87193I-1J1D01*
G01Y90933D01*
G02X66646Y90934I1J0D01*
G01X68341D01*
G02X69500Y91264I1159J-1870D01*
G01X74567D01*
X74630Y91202D01*
X80088D01*
X84131Y95244D01*
X91500D01*
G02X91872Y95213I4J-2201D01*
G01X91889Y95210D01*
X93370D01*
G02X93372Y95208I0J-2D01*
G01Y94204D01*
X93399Y94157D01*
G02Y91929I-1899J-1114D01*
G01X93372Y91882D01*
Y90878D01*
G02X93370Y90876I-2J0D01*
G01X91889D01*
X91872Y90873D01*
G02X91500Y90842I-368J2170D01*
G01X85955D01*
X81912Y86798D01*
X72806D01*
X72743Y86862D01*
X71702D01*
Y82912D01*
X77202Y77412D01*
Y58088D01*
X66674Y47560D01*
Y40704D01*
X68409D01*
X68410Y40703D01*
Y35585D01*
G37*
G36*
G01X124498Y49247D02*
X118698Y55047D01*
Y64192D01*
X118146D01*
G02X118144Y64193I-1J1D01*
G01Y67933D01*
G02X118146Y67934I1J0D01*
G01X119660D01*
G02X122340I1340J-1871D01*
G01X123854D01*
G02X123856Y67933I1J-1D01*
G01Y64193D01*
G02X123854Y64192I-1J0D01*
G01X123302D01*
Y56953D01*
X129102Y51153D01*
Y44747D01*
X120302Y35947D01*
Y32138D01*
X129000D01*
G02X130340Y31708I1J-2301D01*
G01X131854D01*
G02X131856Y31707I1J-1D01*
G01Y27967D01*
G02X131854Y27966I-1J0D01*
G01X130340D01*
G02X129000Y27536I-1339J1871D01*
G01X118000D01*
G02X116660Y27966I-1J2301D01*
G01X115146D01*
G02X115144Y27967I-1J1D01*
G01Y31707D01*
G02X115146Y31708I1J0D01*
G01X115698D01*
Y37853D01*
X124498Y46653D01*
Y49247D01*
G37*
G36*
G01X90257Y38388D02*
G03X89586Y38203I-283J-283D01*
G02X85891Y36514I-2523J634D01*
G01X85848Y36536D01*
X84617D01*
X84223Y36142D01*
X80000D01*
G02X79255Y36265I-3J2301D01*
G01X79224Y36276D01*
X78130D01*
G02X78128Y36278I0J2D01*
G01Y37102D01*
X78094Y37153D01*
G02X77698Y38443I1906J1291D01*
G01Y50686D01*
G02X82302I2302J1214D01*
G01Y41212D01*
G03X82643Y41071I200J0D01*
G01X82711Y41138D01*
X85849D01*
G02X86429Y41360I1213J-2301D01*
G03X86614Y42031I-98J388D01*
G01X85698Y42947D01*
Y52666D01*
X90777Y57744D01*
X102698D01*
Y60947D01*
X100698Y62947D01*
Y67355D01*
X96996D01*
G02X96994Y67356I0J3D01*
G01Y74444D01*
G02X96996Y74445I2J-2D01*
G01X100698D01*
Y78619D01*
G03X100016Y78902I-400J0D01*
G01X97912Y76798D01*
X93912D01*
X93702Y76588D01*
Y66787D01*
G02X89298I-2202J-1387D01*
G01Y78412D01*
X89887Y79000D01*
X89298Y79588D01*
Y85957D01*
G02X89601Y87071I2202J-1D01*
G01X89628Y87118D01*
Y88122D01*
G02X89630Y88124I2J0D01*
G01X91111D01*
X91128Y88127D01*
G02X91872I372J-2170D01*
G01X91889Y88124D01*
X93370D01*
G02X93372Y88122I0J-2D01*
G01Y87118D01*
X93399Y87071D01*
G02X93702Y85957I-1899J-1115D01*
G01Y81412D01*
X93912Y81202D01*
X96088D01*
X98298Y83412D01*
Y93912D01*
X103188Y98802D01*
X106198D01*
Y121447D01*
X100984Y126661D01*
G03X100302Y126378I-282J-283D01*
G01Y125708D01*
X100854D01*
G02X100856Y125707I1J-1D01*
G01Y121967D01*
G02X100854Y121966I-1J0D01*
G01X99340D01*
G02X96660I-1340J1871D01*
G01X95146D01*
G02X95144Y121967I-1J1D01*
G01Y125707D01*
G02X95146Y125708I1J0D01*
G01X95698D01*
Y128032D01*
X84636Y139095D01*
Y141900D01*
G02X85066Y143240I2301J1D01*
G01Y144754D01*
G02X85067Y144756I1J1D01*
G01X88807D01*
G02X88808Y144754I0J-1D01*
G01Y143240D01*
G02X89238Y141900I-1871J-1339D01*
G01Y141001D01*
X99461Y130779D01*
G03X100144Y131061I283J283D01*
G01Y133833D01*
G02X100146Y133834I1J0D01*
G01X101660D01*
G02X104340I1340J-1871D01*
G01X105854D01*
G02X105856Y133833I1J-1D01*
G01Y130093D01*
G02X105854Y130092I-1J0D01*
G01X105302D01*
Y128853D01*
X110802Y123353D01*
Y96600D01*
G02X107856Y94391I-2301J0D01*
G01X107828Y94398D01*
X105012D01*
X102702Y92088D01*
Y82822D01*
G03X103384Y82539I400J0D01*
G01X106198Y85353D01*
Y89100D01*
G02X110802I2302J0D01*
G01Y83447D01*
X105302Y77947D01*
Y74445D01*
X109004D01*
G02X109006Y74444I0J-3D01*
G01Y67356D01*
G02X109004Y67355I-2J2D01*
G01X105302D01*
Y64853D01*
X107302Y62853D01*
Y57744D01*
X114000D01*
G02X114745Y57621I3J-2301D01*
G01X114776Y57610D01*
X115870D01*
G02X115872Y57608I0J-2D01*
G01Y56784D01*
X115906Y56733D01*
G02Y54153I-1906J-1290D01*
G01X115872Y54102D01*
Y53278D01*
G02X115870Y53276I-2J0D01*
G01X114776D01*
X114745Y53265D01*
G02X114000Y53142I-742J2178D01*
G01X92683D01*
X90302Y50760D01*
Y44853D01*
X101302Y33853D01*
Y31708D01*
X101854D01*
G02X101856Y31707I1J-1D01*
G01Y27967D01*
G02X101854Y27966I-1J0D01*
G01X100340D01*
G02X97660I-1340J1871D01*
G01X96146D01*
G02X96144Y27967I-1J1D01*
G01Y31707D01*
G02X96146Y31708I1J0D01*
G01X96454D01*
G03X96595Y32050I0J200D01*
G01X90257Y38388D01*
G37*
G36*
G01X48854Y21966D02*
X47159D01*
G02X44841I-1159J1871D01*
G01X43146D01*
G02X43144Y21967I-1J1D01*
G01Y25707D01*
G02X43146Y25708I1J0D01*
G01X43798D01*
Y34357D01*
G02X44101Y35471I2202J-1D01*
G01X44128Y35518D01*
Y36522D01*
G02X44130Y36524I2J0D01*
G01X45611D01*
X45628Y36527D01*
G02X46372I372J-2170D01*
G01X46389Y36524D01*
X47870D01*
G02X47872Y36522I0J-2D01*
G01Y35518D01*
X47899Y35471D01*
G02X48202Y34357I-1899J-1115D01*
G01Y25708D01*
X48854D01*
G02X48856Y25707I1J-1D01*
G01Y21967D01*
G02X48854Y21966I-1J0D01*
G37*
G36*
G01X141854Y18966D02*
X140340D01*
G02X137660I-1340J1871D01*
G01X136146D01*
G02X136144Y18967I-1J1D01*
G01Y22707D01*
G02X136146Y22708I1J0D01*
G01X136698D01*
Y29092D01*
X136146D01*
G02X136144Y29093I-1J1D01*
G01Y32833D01*
G02X136146Y32834I1J0D01*
G01X137660D01*
G02X140340I1340J-1871D01*
G01X141854D01*
G02X141856Y32833I1J-1D01*
G01Y29093D01*
G02X141854Y29092I-1J0D01*
G01X141302D01*
Y22708D01*
X141854D01*
G02X141856Y22707I1J-1D01*
G01Y18967D01*
G02X141854Y18966I-1J0D01*
G37*
G36*
G01X84698Y30853D02*
X87514Y33668D01*
X87528Y33714D01*
G02X90814Y30428I2472J-814D01*
G01X90768Y30414D01*
X89302Y28947D01*
Y19708D01*
X89854D01*
G02X89856Y19707I1J-1D01*
G01Y15967D01*
G02X89854Y15966I-1J0D01*
G01X88340D01*
G02X85660I-1340J1871D01*
G01X84146D01*
G02X84144Y15967I-1J1D01*
G01Y19707D01*
G02X84146Y19708I1J0D01*
G01X84698D01*
Y30853D01*
G37*
G36*
G01X75088Y18102D02*
X77798Y20812D01*
Y31357D01*
G02X78101Y32471I2202J-1D01*
G01X78128Y32518D01*
Y33522D01*
G02X78130Y33524I2J0D01*
G01X79611D01*
X79628Y33527D01*
G02X80372I372J-2170D01*
G01X80389Y33524D01*
X81870D01*
G02X81872Y33522I0J-2D01*
G01Y32518D01*
X81899Y32471D01*
G02X82202Y31357I-1899J-1115D01*
G01Y18988D01*
X76912Y13698D01*
X71560D01*
Y13341D01*
X71559Y13340D01*
X66441D01*
X66440Y13341D01*
Y18459D01*
X66441Y18460D01*
X71559D01*
X71560Y18459D01*
Y18102D01*
X75088D01*
G37*
G36*
G01X62506Y13341D02*
G02X62504Y13340I-2J2D01*
G01X57386D01*
G02X57384Y13341I-1J1D01*
G01Y13598D01*
X55033D01*
X54970Y13662D01*
X46000D01*
G02X44660Y14092I-1J2301D01*
G01X43146D01*
G02X43144Y14093I-1J1D01*
G01Y17833D01*
G02X43146Y17834I1J0D01*
G01X44660D01*
G02X46000Y18264I1339J-1871D01*
G01X56876D01*
X56939Y18202D01*
X57384D01*
Y18459D01*
G02X57386Y18460I2J-2D01*
G01X62504D01*
G02X62506Y18459I1J-1D01*
G01Y13341D01*
G37*
G36*
G01X12094Y87647D02*
X12128Y87698D01*
Y88522D01*
G02X12130Y88524I2J0D01*
G01X13224D01*
X13255Y88535D01*
G02X14745I745J-2178D01*
G01X14776Y88524D01*
X15870D01*
G02X15872Y88522I0J-2D01*
G01Y87698D01*
X15906Y87647D01*
G02X16302Y86357I-1906J-1291D01*
G01Y68353D01*
X19253Y65402D01*
X26000D01*
G02X26002Y65400I0J-2D01*
G01Y59400D01*
G02X26000Y59398I-2J0D01*
G01X16000D01*
G02X15998Y59400I0J2D01*
G01Y62147D01*
X11698Y66447D01*
Y86357D01*
G02X12094Y87647I2302J-1D01*
G37*
G36*
G01X38854Y30966D02*
X37340D01*
G02X34660I-1340J1871D01*
G01X33146D01*
G02X33144Y30967I-1J1D01*
G01Y34707D01*
G02X33146Y34708I1J0D01*
G01X33698D01*
Y35378D01*
G03X33016Y35661I-400J0D01*
G01X28953Y31598D01*
X24808D01*
Y31046D01*
G02X24807Y31044I-1J-1D01*
G01X21067D01*
G02X21066Y31046I0J1D01*
G01Y32560D01*
G02Y35240I1871J1340D01*
G01Y36754D01*
G02X21067Y36756I1J1D01*
G01X24807D01*
G02X24808Y36754I0J-1D01*
G01Y36202D01*
X27047D01*
X32156Y41310D01*
Y56123D01*
X32198Y56166D01*
Y64447D01*
X28762Y67884D01*
Y77202D01*
X28698Y77265D01*
Y79686D01*
G02X29194Y82774I2302J1214D01*
G03X28917Y83462I-277J288D01*
G01X23600D01*
G02X22441Y83792I0J2200D01*
G01X20746D01*
G02X20744Y83793I-1J1D01*
G01Y87533D01*
G02X20746Y87534I1J0D01*
G01X22441D01*
G02X23600Y87864I1159J-1870D01*
G01X32851D01*
X36588Y91602D01*
X42628D01*
X42656Y91609D01*
G02X45602Y89400I645J-2209D01*
G01Y88297D01*
X41238Y83934D01*
Y73900D01*
G02X40808Y72560I-2301J-1D01*
G01Y71046D01*
G02X40807Y71044I-1J-1D01*
G01X37067D01*
G02X37066Y71046I0J1D01*
G01Y72560D01*
G02X36636Y73900I1871J1339D01*
G01Y84456D01*
G03X35953Y84739I-400J0D01*
G01X34675Y83462D01*
X33083D01*
G03X32806Y82774I0J-400D01*
G02X33323Y79728I-1806J-1873D01*
G01X33302Y79685D01*
Y79171D01*
X33364Y79108D01*
Y69790D01*
X36802Y66353D01*
Y54260D01*
X36758Y54217D01*
Y41086D01*
G03X37441Y40803I400J0D01*
G01X39242Y42603D01*
Y56123D01*
X43972Y60853D01*
Y64940D01*
G02X43762Y65900I2091J960D01*
G01Y85466D01*
X48759Y90464D01*
X48773Y90490D01*
G02X53102Y89400I2027J-1090D01*
G01Y88297D01*
X48364Y83560D01*
Y66853D01*
X48574Y66643D01*
Y58947D01*
X43844Y54217D01*
Y43591D01*
X44089D01*
X44129Y43610D01*
X45611D01*
X45628Y43613D01*
G02X46000Y43644I368J-2170D01*
G01X49631D01*
X67342Y61355D01*
Y71545D01*
X56798Y82088D01*
Y95088D01*
X49984Y101902D01*
G03X49302Y101619I-282J-283D01*
G01Y96400D01*
G02X44698I-2302J0D01*
G01Y102662D01*
X40698Y106662D01*
Y130139D01*
X40302Y130536D01*
X37000D01*
G02X35660Y130966I-1J2301D01*
G01X34146D01*
G02X34144Y130967I-1J1D01*
G01Y134707D01*
G02X34146Y134708I1J0D01*
G01X34698D01*
Y143853D01*
X43047Y152202D01*
X99953D01*
X105302Y146853D01*
Y142138D01*
X110698D01*
Y146853D01*
X116047Y152202D01*
X125203D01*
X126703Y150702D01*
X129547D01*
X131047Y152202D01*
X141953D01*
X152302Y141853D01*
Y105447D01*
X145002Y98147D01*
Y95400D01*
G02X145000Y95398I-2J0D01*
G01X135000D01*
G02X134998Y95400I0J2D01*
G01Y101400D01*
G02X135000Y101402I2J0D01*
G01X141747D01*
X147698Y107353D01*
Y139947D01*
X140047Y147598D01*
X132953D01*
X131453Y146098D01*
X124797D01*
X123297Y147598D01*
X117953D01*
X115302Y144947D01*
Y141708D01*
X115854D01*
G02X115856Y141707I1J-1D01*
G01Y137967D01*
G02X115854Y137966I-1J0D01*
G01X114340D01*
G02X113000Y137536I-1339J1871D01*
G01X103000D01*
G02X101660Y137966I-1J2301D01*
G01X100146D01*
G02X100144Y137967I-1J1D01*
G01Y141707D01*
G02X100146Y141708I1J0D01*
G01X100698D01*
Y144947D01*
X98047Y147598D01*
X44953D01*
X39302Y141947D01*
Y135138D01*
X42208D01*
X45302Y132045D01*
Y114381D01*
G03X45984Y114098I400J0D01*
G01X46798Y114912D01*
Y118092D01*
X46146D01*
G02X46144Y118093I-1J1D01*
G01Y121833D01*
G02X46146Y121834I1J0D01*
G01X47841D01*
G02X50159I1159J-1871D01*
G01X51854D01*
G02X51856Y121833I1J-1D01*
G01Y118093D01*
G02X51854Y118092I-1J0D01*
G01X51202D01*
Y113088D01*
X49202Y111088D01*
Y108912D01*
X61202Y96912D01*
Y83912D01*
X71744Y73369D01*
Y59531D01*
X51455Y39242D01*
X46000D01*
G02X45628Y39273I-4J2201D01*
G01X45611Y39276D01*
X44130D01*
G02X44128Y39278I0J2D01*
G01Y40282D01*
X44101Y40329D01*
G02X44015Y40491I1900J1112D01*
G01X44000Y40521D01*
X43835Y40687D01*
X38302Y35154D01*
Y34708D01*
X38854D01*
G02X38856Y34707I1J-1D01*
G01Y30967D01*
G02X38854Y30966I-1J0D01*
G37*
G54D25*
X20000Y19900D03*
X141000Y141000D03*
%LPD*%
G75*
G54D10*
X22937Y33900D03*
X15063D03*
X31063Y73900D03*
X38937D03*
X53937Y65900D03*
X46063D03*
X53063Y141900D03*
X60937D03*
X79063D03*
X86937D03*
G54D20*
X108500Y89100D03*
Y96600D03*
X115500Y92900D03*
G54D11*
X20000Y19900D03*
X141000Y141000D03*
G54D21*
X103000Y70900D03*
G54D12*
X21000Y62400D03*
Y49400D03*
X140000Y85400D03*
Y98400D03*
G54D13*
X14000Y86357D03*
X9000Y114357D03*
Y121443D03*
X17000Y114357D03*
Y121443D03*
X25000Y114357D03*
Y121443D03*
X14000Y93443D03*
X46000Y34357D03*
Y41443D03*
X57000Y120357D03*
Y127443D03*
X80000Y31357D03*
Y38443D03*
X89000Y116357D03*
Y123443D03*
X95000Y55443D03*
Y48357D03*
X114000Y55443D03*
Y48357D03*
X105000Y55443D03*
Y48357D03*
X91500Y85957D03*
Y93043D03*
G54D22*
X122000Y122000D03*
G54D23*
G01X15063Y30343D02*
Y33900D01*
G01X21000Y45698D02*
Y49400D01*
G01D02*
Y53102D01*
G01Y49400D02*
X26702D01*
G01X15063Y33900D02*
Y37457D01*
G01X12491Y33900D02*
X15063D01*
G01D02*
X17635D01*
G01X17500Y49400D02*
X19000D01*
G01X43300Y89400D02*
X37500D01*
X33763Y85663D01*
X23600D01*
G01X37000Y124963D02*
X36963Y125000D01*
X32000D01*
X28443Y121443D01*
X25000D01*
G01Y111489D02*
Y114357D01*
G01D02*
X27572D01*
G01X9000Y111489D02*
Y114357D01*
G01X6428D02*
X9000D01*
G01X23600Y93537D02*
Y97300D01*
X22000Y98900D01*
X19161D01*
X14000Y93739D01*
Y93443D01*
G01X36000Y22391D02*
Y24963D01*
G01D02*
Y27535D01*
G01X32443Y24963D02*
X36000D01*
G01D02*
X39557D01*
G01X46000Y34357D02*
Y23837D01*
G01Y41443D02*
X50543D01*
X69543Y60443D01*
Y65900D01*
G01X49000Y119963D02*
Y114000D01*
X47000Y112000D01*
Y108000D01*
X59000Y96000D01*
Y83000D01*
X69543Y72457D01*
Y65900D01*
G01X87000Y7391D02*
Y9963D01*
G01D02*
Y12535D01*
G01X83443Y9963D02*
X87000D01*
G01D02*
X90557D01*
G01X80000Y31357D02*
Y19900D01*
X76000Y15900D01*
X69000D01*
G01X69500Y89063D02*
Y82000D01*
X75000Y76500D01*
Y59000D01*
X64472Y48472D01*
Y38144D01*
G01X69500Y89063D02*
X73655D01*
X73718Y89000D01*
X81000D01*
X85043Y93043D01*
X91500D01*
G01X69500Y96937D02*
Y102000D01*
X72528Y105028D01*
Y110656D01*
G01X118000Y19391D02*
Y21963D01*
G01D02*
Y24535D01*
G01X114443Y21963D02*
X118000D01*
G01D02*
X121557D01*
G01X99000Y19391D02*
Y21963D01*
G01D02*
Y24535D01*
G01X95443Y21963D02*
X99000D01*
G01D02*
X102557D01*
G01X114000Y48357D02*
X118143D01*
G01X95000Y45489D02*
Y48357D01*
G01X92428D02*
X95000D01*
G01X91500Y85957D02*
Y80500D01*
X93000Y79000D01*
G01D02*
X97000D01*
X100500Y82500D01*
Y93000D01*
X104100Y96600D01*
X108500D01*
G01X91500Y65400D02*
Y77500D01*
X93000Y79000D01*
G01X129000Y19391D02*
Y21963D01*
G01D02*
Y24535D01*
G01X125443Y21963D02*
X129000D01*
G01D02*
X132557D01*
G01X139000Y10391D02*
Y12963D01*
G01D02*
Y15535D01*
G01X135443Y12963D02*
X139000D01*
G01D02*
X142557D01*
G01X140000Y81698D02*
Y85400D01*
G01D02*
Y89102D01*
G01X134298Y85400D02*
X140000D01*
G01X131000Y73837D02*
Y78000D01*
X127000Y82000D01*
Y104000D01*
X130000Y107000D01*
X135713D01*
X138543Y109830D01*
Y113000D01*
G01X131457D02*
X126000D01*
X121000Y108000D01*
Y73937D01*
G01X138543Y113000D02*
Y122000D01*
G01X131457Y113000D02*
Y122000D01*
G01X138543Y130000D02*
Y122000D01*
G01Y130000D02*
Y134507D01*
X131800Y141250D01*
Y141400D01*
G01X131457Y130000D02*
Y122000D01*
G01X122000D02*
X131457D01*
G54D14*
X23600Y85663D03*
Y93537D03*
X46000Y15963D03*
Y23837D03*
X36000Y24963D03*
Y32837D03*
X35000Y108837D03*
Y100963D03*
X49000Y119963D03*
X37000Y124963D03*
Y132837D03*
X49000Y127837D03*
X87000Y17837D03*
Y9963D03*
X69500Y89063D03*
Y96937D03*
X99000Y29837D03*
Y21963D03*
X118000Y29837D03*
Y21963D03*
X121000Y73937D03*
Y66063D03*
X98000Y115963D03*
Y123837D03*
X103000Y139837D03*
Y131963D03*
X113000Y139837D03*
Y131963D03*
X139000Y30963D03*
Y20837D03*
Y12963D03*
X129000Y29837D03*
Y21963D03*
X139000Y54837D03*
Y46963D03*
Y38837D03*
X131000Y73837D03*
Y65963D03*
G54D24*
G01X19000Y49400D02*
X21000D01*
G01X22937Y33900D02*
X28000D01*
X34457Y40357D01*
Y51900D01*
G01X19000Y62400D02*
X21000D01*
G01X14000Y86357D02*
Y67400D01*
X19000Y62400D01*
G01X9000Y121443D02*
X17000D01*
G01X25000D02*
X17000D01*
G01X25000Y121900D02*
Y121443D01*
G01X9000Y114357D02*
X17000D01*
G01X25000D02*
X17000D01*
G01X46000Y15963D02*
X55923D01*
X55986Y15900D01*
X59945D01*
G01X41543Y51900D02*
Y41650D01*
X36000Y36107D01*
Y32837D01*
G01X46063Y65900D02*
X46273Y65690D01*
Y59900D01*
X41543Y55170D01*
Y51900D01*
G01X34457D02*
Y55170D01*
X34500Y55213D01*
Y65400D01*
X31063Y68837D01*
Y73900D01*
G01X46063Y65900D02*
Y84513D01*
X50800Y89250D01*
Y89400D01*
G01X38937Y73900D02*
Y84887D01*
X43300Y89250D01*
Y89400D01*
G01X53937Y65900D02*
X62457D01*
G01X35000Y100963D02*
Y95900D01*
X31000Y91900D01*
G01Y80900D02*
Y78218D01*
X31063Y78155D01*
Y73900D01*
G01X47000Y96400D02*
Y103615D01*
X43000Y107615D01*
Y131092D01*
X41255Y132837D01*
X37000D01*
G01X35000Y108837D02*
Y115900D01*
X37000Y117900D01*
Y124963D01*
G01X72528Y110656D02*
X63135D01*
X57000Y116791D01*
Y120357D01*
G01X49000Y127837D02*
Y136852D01*
X53063Y140915D01*
Y141900D01*
G01X103000Y139837D02*
Y145900D01*
X99000Y149900D01*
X44000D01*
X37000Y142900D01*
Y132837D01*
G01X64000Y132900D02*
X58891D01*
X57000Y131009D01*
Y127443D01*
G01X87000Y17837D02*
Y29900D01*
X90000Y32900D01*
G01X99000Y29837D02*
Y32900D01*
X88000Y43900D01*
Y51713D01*
X91730Y55443D01*
X95000D01*
G01X80000Y51900D02*
Y38443D01*
G01X87063Y38837D02*
X83664D01*
X83270Y38443D01*
X80000D01*
G01X72528Y110656D02*
X83595D01*
X89000Y116061D01*
Y116357D01*
G01X87103Y101796D02*
X98000Y112693D01*
Y115963D01*
G01X89000Y123443D02*
Y129900D01*
X86000Y132900D01*
X77055D01*
G01X79063Y141900D02*
Y134908D01*
X77055Y132900D01*
G01X86937Y141900D02*
Y140048D01*
X98000Y128985D01*
Y123837D01*
G01X64000Y132900D02*
X60937Y135963D01*
Y141900D01*
G01X64000Y132900D02*
X68000D01*
G01X118000Y29837D02*
X129000D01*
G01X121000Y66063D02*
Y56000D01*
X126800Y50200D01*
Y45700D01*
X118000Y36900D01*
Y29837D01*
G01X95000Y55443D02*
X105000D01*
G01X114000D02*
X105000D01*
G01X103000Y70900D02*
Y63900D01*
X105000Y61900D01*
Y55443D01*
G01X114000Y48357D02*
X105000D01*
G01X95000D02*
X105000D01*
G01X103000Y70900D02*
Y78900D01*
X108500Y84400D01*
Y89100D01*
G01X113000Y131963D02*
Y126900D01*
X115500Y124400D01*
Y92900D01*
G01X108500Y96600D02*
Y122400D01*
X103000Y127900D01*
Y131963D01*
G01Y139837D02*
X113000D01*
G01X128000Y148400D02*
X125750D01*
X124250Y149900D01*
X117000D01*
X113000Y145900D01*
Y139837D01*
G01Y131963D02*
X113063Y131900D01*
X118000D01*
X124300Y138200D01*
Y141400D01*
G01X139000Y20837D02*
Y30963D01*
G01Y54837D02*
X138015D01*
X131000Y61852D01*
Y65963D01*
G01X139000Y38837D02*
Y46963D01*
G01Y38837D02*
X128063D01*
G01X143500Y85400D02*
X140000D01*
G01X142000Y98400D02*
X150000Y106400D01*
Y140900D01*
X141000Y149900D01*
X132000D01*
X130500Y148400D01*
X128000D01*
G01X142000Y98400D02*
X140000D01*
G54D15*
X31000Y80900D03*
Y91900D03*
X90000Y32900D03*
X80000Y51900D03*
X87063Y38837D03*
X87103Y101796D03*
X91500Y65400D03*
X128063Y38837D03*
G54D16*
X59945Y15900D03*
X69000D03*
X77055Y132900D03*
X68000D03*
G54D17*
X41543Y51900D03*
X34457D03*
X69543Y65900D03*
X62457D03*
X138543Y122000D03*
X131457D03*
X138543Y113000D03*
X131457D03*
X138543Y130000D03*
X131457D03*
G54D18*
X50800Y89400D03*
X43300D03*
X47000Y96400D03*
X131800Y141400D03*
X124300D03*
X128000Y148400D03*
G54D19*
X64472Y38144D03*
X72528Y110656D03*
M02*
